<svg xmlns="http://www.w3.org/2000/svg" xmlns:xlink="http://www.w3.org/1999/xlink" version="1.1" class="marks" width="845" height="542" viewBox="0 0 845 542"><rect width="845" height="542" fill="white"/><g fill="none" stroke-miterlimit="10" transform="translate(45,80)"><g class="mark-group role-frame root" role="graphics-object" aria-roledescription="group mark container"><g transform="translate(0,0)"><path class="background" aria-hidden="true" d="M0,0h0v0h0Z"/><g><g class="mark-group role-row-header row_header" role="graphics-object" aria-roledescription="group mark container"><g transform="translate(-1,0)"><path class="background" aria-hidden="true" d="M0,0h0v300h0Z"/><g><g class="mark-group role-axis" role="graphics-symbol" aria-roledescription="axis" aria-label="Y-axis titled 'Unemployment Rate' for a linear scale with values from 0 to 20"><g transform="translate(0.5,0.5)"><path class="background" aria-hidden="true" d="M0,0h0v0h0Z" pointer-events="none"/><g><g class="mark-rule role-axis-tick" pointer-events="none"><line transform="translate(0,300)" x2="-5" y2="0" stroke="#888" stroke-width="1" opacity="1"/><line transform="translate(0,270)" x2="-5" y2="0" stroke="#888" stroke-width="1" opacity="1"/><line transform="translate(0,240)" x2="-5" y2="0" stroke="#888" stroke-width="1" opacity="1"/><line transform="translate(0,210)" x2="-5" y2="0" stroke="#888" stroke-width="1" opacity="1"/><line transform="translate(0,180)" x2="-5" y2="0" stroke="#888" stroke-width="1" opacity="1"/><line transform="translate(0,150)" x2="-5" y2="0" stroke="#888" stroke-width="1" opacity="1"/><line transform="translate(0,120)" x2="-5" y2="0" stroke="#888" stroke-width="1" opacity="1"/><line transform="translate(0,90)" x2="-5" y2="0" stroke="#888" stroke-width="1" opacity="1"/><line transform="translate(0,60)" x2="-5" y2="0" stroke="#888" stroke-width="1" opacity="1"/><line transform="translate(0,30)" x2="-5" y2="0" stroke="#888" stroke-width="1" opacity="1"/><line transform="translate(0,0)" x2="-5" y2="0" stroke="#888" stroke-width="1" opacity="1"/></g><g class="mark-text role-axis-label" pointer-events="none"><text text-anchor="end" transform="translate(-7,304)" font-family="Agency FB" font-size="14px" fill="#000" opacity="1">0</text><text text-anchor="end" transform="translate(-7,274)" font-family="Agency FB" font-size="14px" fill="#000" opacity="1">2</text><text text-anchor="end" transform="translate(-7,244)" font-family="Agency FB" font-size="14px" fill="#000" opacity="1">4</text><text text-anchor="end" transform="translate(-7,214)" font-family="Agency FB" font-size="14px" fill="#000" opacity="1">6</text><text text-anchor="end" transform="translate(-7,184)" font-family="Agency FB" font-size="14px" fill="#000" opacity="1">8</text><text text-anchor="end" transform="translate(-7,154)" font-family="Agency FB" font-size="14px" fill="#000" opacity="1">10</text><text text-anchor="end" transform="translate(-7,124)" font-family="Agency FB" font-size="14px" fill="#000" opacity="1">12</text><text text-anchor="end" transform="translate(-7,94.00000000000001)" font-family="Agency FB" font-size="14px" fill="#000" opacity="1">14</text><text text-anchor="end" transform="translate(-7,63.999999999999986)" font-family="Agency FB" font-size="14px" fill="#000" opacity="1">16</text><text text-anchor="end" transform="translate(-7,33.99999999999999)" font-family="Agency FB" font-size="14px" fill="#000" opacity="1">18</text><text text-anchor="end" transform="translate(-7,4)" font-family="Agency FB" font-size="14px" fill="#000" opacity="1">20</text></g><g class="mark-rule role-axis-domain" pointer-events="none"><line transform="translate(0,300)" x2="0" y2="-300" stroke="#888" stroke-width="1" opacity="1"/></g><g class="mark-text role-axis-title" pointer-events="none"><text text-anchor="middle" transform="translate(-22.5390625,150) rotate(-90) translate(0,-3)" font-family="Agency FB" font-size="16px" font-weight="bold" fill="#000" opacity="1">Unemployment Rate</text></g></g><path class="foreground" aria-hidden="true" d="" pointer-events="none" display="none"/></g></g></g><path class="foreground" aria-hidden="true" d="" display="none"/></g></g><g class="mark-group role-scope cell" role="graphics-object" aria-roledescription="group mark container"><g transform="translate(0,0)"><path class="background" aria-hidden="true" d="M0.5,0.5h250v300h-250Z" stroke="#ddd"/><g><g class="mark-group role-axis" aria-hidden="true"><g transform="translate(0.5,0.5)"><path class="background" aria-hidden="true" d="M0,0h0v0h0Z" pointer-events="none"/><g><g class="mark-rule role-axis-grid" pointer-events="none"><line transform="translate(0,300)" x2="250" y2="0" stroke="#ddd" stroke-width="1" opacity="1"/><line transform="translate(0,270)" x2="250" y2="0" stroke="#ddd" stroke-width="1" opacity="1"/><line transform="translate(0,240)" x2="250" y2="0" stroke="#ddd" stroke-width="1" opacity="1"/><line transform="translate(0,210)" x2="250" y2="0" stroke="#ddd" stroke-width="1" opacity="1"/><line transform="translate(0,180)" x2="250" y2="0" stroke="#ddd" stroke-width="1" opacity="1"/><line transform="translate(0,150)" x2="250" y2="0" stroke="#ddd" stroke-width="1" opacity="1"/><line transform="translate(0,120)" x2="250" y2="0" stroke="#ddd" stroke-width="1" opacity="1"/><line transform="translate(0,90)" x2="250" y2="0" stroke="#ddd" stroke-width="1" opacity="1"/><line transform="translate(0,60)" x2="250" y2="0" stroke="#ddd" stroke-width="1" opacity="1"/><line transform="translate(0,30)" x2="250" y2="0" stroke="#ddd" stroke-width="1" opacity="1"/><line transform="translate(0,0)" x2="250" y2="0" stroke="#ddd" stroke-width="1" opacity="1"/></g></g><path class="foreground" aria-hidden="true" d="" pointer-events="none" display="none"/></g></g><g class="mark-group role-axis" role="graphics-symbol" aria-roledescription="axis" aria-label="X-axis for a discrete scale with 6 values: Northern Cheyenne, Blackfeet, Rocky Boy's, Fort Peck, Flathead, Montana (state)"><g transform="translate(0.5,300.5)"><path class="background" aria-hidden="true" d="M0,0h0v0h0Z" pointer-events="none"/><g><g class="mark-rule role-axis-tick" pointer-events="none"><line transform="translate(20,0)" x2="0" y2="5" stroke="#888" stroke-width="1" opacity="1"/><line transform="translate(62,0)" x2="0" y2="5" stroke="#888" stroke-width="1" opacity="1"/><line transform="translate(104,0)" x2="0" y2="5" stroke="#888" stroke-width="1" opacity="1"/><line transform="translate(145,0)" x2="0" y2="5" stroke="#888" stroke-width="1" opacity="1"/><line transform="translate(187,0)" x2="0" y2="5" stroke="#888" stroke-width="1" opacity="1"/><line transform="translate(229,0)" x2="0" y2="5" stroke="#888" stroke-width="1" opacity="1"/></g><g class="mark-text role-axis-label" pointer-events="none"><text text-anchor="end" transform="translate(20.33333333333333,7) rotate(270) translate(0,4)" font-family="Agency FB" font-size="14px" fill="#000" opacity="1">Northern Cheyenne</text><text text-anchor="end" transform="translate(61.99999999999999,7) rotate(270) translate(0,4)" font-family="Agency FB" font-size="14px" fill="#000" opacity="1">Blackfeet</text><text text-anchor="end" transform="translate(103.66666666666666,7) rotate(270) translate(0,4)" font-family="Agency FB" font-size="14px" fill="#000" opacity="1">Rocky Boy's</text><text text-anchor="end" transform="translate(145.33333333333331,7) rotate(270) translate(0,4)" font-family="Agency FB" font-size="14px" fill="#000" opacity="1">Fort Peck</text><text text-anchor="end" transform="translate(187,7) rotate(270) translate(0,4)" font-family="Agency FB" font-size="14px" fill="#000" opacity="1">Flathead</text><text text-anchor="end" transform="translate(228.66666666666663,7) rotate(270) translate(0,4)" font-family="Agency FB" font-size="14px" fill="#000" opacity="1">Montana (state)</text></g><g class="mark-rule role-axis-domain" pointer-events="none"><line transform="translate(0,0)" x2="250" y2="0" stroke="#888" stroke-width="1" opacity="1"/></g></g><path class="foreground" aria-hidden="true" d="" pointer-events="none" display="none"/></g></g><g class="mark-rect role-mark child_marks" role="graphics-object" aria-roledescription="rect mark container"><path aria-label="geoname_abbrev: Blackfeet; Unemployment Rate: 12.2351820995; is_us_state: false" role="graphics-symbol" aria-roledescription="bar" d="M43.74999999999999,116.47226850749848h37.5v183.52773149250152h-37.5Z" fill="darkturquoise"/><path aria-label="geoname_abbrev: Flathead; Unemployment Rate: 7.00108264165; is_us_state: false" role="graphics-symbol" aria-roledescription="bar" d="M168.75,194.9837603753157h37.5v105.01623962468429h-37.5Z" fill="darkturquoise"/><path aria-label="geoname_abbrev: Fort Peck; Unemployment Rate: 10.5631747884; is_us_state: false" role="graphics-symbol" aria-roledescription="bar" d="M127.08333333333333,141.5523781733295h37.5v158.4476218266705h-37.5Z" fill="darkturquoise"/><path aria-label="geoname_abbrev: Montana (state); Unemployment Rate: 3.75682145592; is_us_state: true" role="graphics-symbol" aria-roledescription="bar" d="M210.41666666666663,243.64767816116583h37.5v56.35232183883417h-37.5Z" fill="chocolate"/><path aria-label="geoname_abbrev: Northern Cheyenne; Unemployment Rate: 18.6160440906; is_us_state: false" role="graphics-symbol" aria-roledescription="bar" d="M2.0833333333333286,20.759338640539482h37.5v279.24066135946055h-37.5Z" fill="darkturquoise"/><path aria-label="geoname_abbrev: Rocky Boy's; Unemployment Rate: 11.9360902256; is_us_state: false" role="graphics-symbol" aria-roledescription="bar" d="M85.41666666666666,120.9586466165415h37.5v179.0413533834585h-37.5Z" fill="darkturquoise"/></g><g class="mark-group role-title"><g transform="translate(125,-28)"><path class="background" aria-hidden="true" d="M0,0h0v0h0Z" pointer-events="none"/><g><g class="mark-text role-title-text" role="graphics-symbol" aria-roledescription="title" aria-label="Title text 'Montana'" pointer-events="none"><text text-anchor="middle" transform="translate(0,14)" font-family="Agency FB" font-size="18px" fill="#000" opacity="1">Montana</text></g></g><path class="foreground" aria-hidden="true" d="" pointer-events="none" display="none"/></g></g></g><path class="foreground" aria-hidden="true" d="" display="none"/></g><g transform="translate(272,0)"><path class="background" aria-hidden="true" d="M0.5,0.5h250v300h-250Z" stroke="#ddd"/><g><g class="mark-group role-axis" aria-hidden="true"><g transform="translate(0.5,0.5)"><path class="background" aria-hidden="true" d="M0,0h0v0h0Z" pointer-events="none"/><g><g class="mark-rule role-axis-grid" pointer-events="none"><line transform="translate(0,300)" x2="250" y2="0" stroke="#ddd" stroke-width="1" opacity="1"/><line transform="translate(0,270)" x2="250" y2="0" stroke="#ddd" stroke-width="1" opacity="1"/><line transform="translate(0,240)" x2="250" y2="0" stroke="#ddd" stroke-width="1" opacity="1"/><line transform="translate(0,210)" x2="250" y2="0" stroke="#ddd" stroke-width="1" opacity="1"/><line transform="translate(0,180)" x2="250" y2="0" stroke="#ddd" stroke-width="1" opacity="1"/><line transform="translate(0,150)" x2="250" y2="0" stroke="#ddd" stroke-width="1" opacity="1"/><line transform="translate(0,120)" x2="250" y2="0" stroke="#ddd" stroke-width="1" opacity="1"/><line transform="translate(0,90)" x2="250" y2="0" stroke="#ddd" stroke-width="1" opacity="1"/><line transform="translate(0,60)" x2="250" y2="0" stroke="#ddd" stroke-width="1" opacity="1"/><line transform="translate(0,30)" x2="250" y2="0" stroke="#ddd" stroke-width="1" opacity="1"/><line transform="translate(0,0)" x2="250" y2="0" stroke="#ddd" stroke-width="1" opacity="1"/></g></g><path class="foreground" aria-hidden="true" d="" pointer-events="none" display="none"/></g></g><g class="mark-group role-axis" role="graphics-symbol" aria-roledescription="axis" aria-label="X-axis for a discrete scale with 6 values: Warm Springs, Coquille, Grand Ronde Community, Umatilla, Oregon (state), Coos, Lower Umpqua, and Siuslaw"><g transform="translate(0.5,300.5)"><path class="background" aria-hidden="true" d="M0,0h0v0h0Z" pointer-events="none"/><g><g class="mark-rule role-axis-tick" pointer-events="none"><line transform="translate(20,0)" x2="0" y2="5" stroke="#888" stroke-width="1" opacity="1"/><line transform="translate(62,0)" x2="0" y2="5" stroke="#888" stroke-width="1" opacity="1"/><line transform="translate(104,0)" x2="0" y2="5" stroke="#888" stroke-width="1" opacity="1"/><line transform="translate(145,0)" x2="0" y2="5" stroke="#888" stroke-width="1" opacity="1"/><line transform="translate(187,0)" x2="0" y2="5" stroke="#888" stroke-width="1" opacity="1"/><line transform="translate(229,0)" x2="0" y2="5" stroke="#888" stroke-width="1" opacity="1"/></g><g class="mark-text role-axis-label" pointer-events="none"><text text-anchor="end" transform="translate(20.33333333333333,7) rotate(270) translate(0,4)" font-family="Agency FB" font-size="14px" fill="#000" opacity="1">Warm Springs</text><text text-anchor="end" transform="translate(61.99999999999999,7) rotate(270) translate(0,4)" font-family="Agency FB" font-size="14px" fill="#000" opacity="1">Coquille</text><text text-anchor="end" transform="translate(103.66666666666666,7) rotate(270) translate(0,4)" font-family="Agency FB" font-size="14px" fill="#000" opacity="1">Grand Ronde Community</text><text text-anchor="end" transform="translate(145.33333333333331,7) rotate(270) translate(0,4)" font-family="Agency FB" font-size="14px" fill="#000" opacity="1">Umatilla</text><text text-anchor="end" transform="translate(187,7) rotate(270) translate(0,4)" font-family="Agency FB" font-size="14px" fill="#000" opacity="1">Oregon (state)</text><text text-anchor="end" transform="translate(228.66666666666663,7) rotate(270) translate(0,4)" font-family="Agency FB" font-size="14px" fill="#000" opacity="1">Coos, Lower Umpqua, and Siuslaw</text></g><g class="mark-rule role-axis-domain" pointer-events="none"><line transform="translate(0,0)" x2="250" y2="0" stroke="#888" stroke-width="1" opacity="1"/></g></g><path class="foreground" aria-hidden="true" d="" pointer-events="none" display="none"/></g></g><g class="mark-rect role-mark child_marks" role="graphics-object" aria-roledescription="rect mark container"><path aria-label="geoname_abbrev: Coos, Lower Umpqua, and Siuslaw; Unemployment Rate: 3.84615384615; is_us_state: false" role="graphics-symbol" aria-roledescription="bar" d="M210.41666666666663,242.30769230769224h37.5v57.692307692307764h-37.5Z" fill="darkturquoise"/><path aria-label="geoname_abbrev: Coquille; Unemployment Rate: 10.582010582; is_us_state: false" role="graphics-symbol" aria-roledescription="bar" d="M43.74999999999999,141.269841269841h37.5v158.730158730159h-37.5Z" fill="darkturquoise"/><path aria-label="geoname_abbrev: Grand Ronde Community; Unemployment Rate: 9.23076923077; is_us_state: false" role="graphics-symbol" aria-roledescription="bar" d="M85.41666666666666,161.53846153846158h37.5v138.46153846153842h-37.5Z" fill="darkturquoise"/><path aria-label="geoname_abbrev: Oregon (state); Unemployment Rate: 5.37014022861; is_us_state: true" role="graphics-symbol" aria-roledescription="bar" d="M168.75,219.4478965709082h37.5v80.5521034290918h-37.5Z" fill="chocolate"/><path aria-label="geoname_abbrev: Umatilla; Unemployment Rate: 5.59593023256; is_us_state: false" role="graphics-symbol" aria-roledescription="bar" d="M127.08333333333333,216.06104651162792h37.5v83.93895348837208h-37.5Z" fill="darkturquoise"/><path aria-label="geoname_abbrev: Warm Springs; Unemployment Rate: 13.2423756019; is_us_state: false" role="graphics-symbol" aria-roledescription="bar" d="M2.0833333333333286,101.364365971107h37.5v198.63563402889298h-37.5Z" fill="darkturquoise"/></g><g class="mark-group role-title"><g transform="translate(125,-28)"><path class="background" aria-hidden="true" d="M0,0h0v0h0Z" pointer-events="none"/><g><g class="mark-text role-title-text" role="graphics-symbol" aria-roledescription="title" aria-label="Title text 'Oregon'" pointer-events="none"><text text-anchor="middle" transform="translate(0,14)" font-family="Agency FB" font-size="18px" fill="#000" opacity="1">Oregon</text></g></g><path class="foreground" aria-hidden="true" d="" pointer-events="none" display="none"/></g></g></g><path class="foreground" aria-hidden="true" d="" display="none"/></g><g transform="translate(544,0)"><path class="background" aria-hidden="true" d="M0.5,0.5h250v300h-250Z" stroke="#ddd"/><g><g class="mark-group role-axis" aria-hidden="true"><g transform="translate(0.5,0.5)"><path class="background" aria-hidden="true" d="M0,0h0v0h0Z" pointer-events="none"/><g><g class="mark-rule role-axis-grid" pointer-events="none"><line transform="translate(0,300)" x2="250" y2="0" stroke="#ddd" stroke-width="1" opacity="1"/><line transform="translate(0,270)" x2="250" y2="0" stroke="#ddd" stroke-width="1" opacity="1"/><line transform="translate(0,240)" x2="250" y2="0" stroke="#ddd" stroke-width="1" opacity="1"/><line transform="translate(0,210)" x2="250" y2="0" stroke="#ddd" stroke-width="1" opacity="1"/><line transform="translate(0,180)" x2="250" y2="0" stroke="#ddd" stroke-width="1" opacity="1"/><line transform="translate(0,150)" x2="250" y2="0" stroke="#ddd" stroke-width="1" opacity="1"/><line transform="translate(0,120)" x2="250" y2="0" stroke="#ddd" stroke-width="1" opacity="1"/><line transform="translate(0,90)" x2="250" y2="0" stroke="#ddd" stroke-width="1" opacity="1"/><line transform="translate(0,60)" x2="250" y2="0" stroke="#ddd" stroke-width="1" opacity="1"/><line transform="translate(0,30)" x2="250" y2="0" stroke="#ddd" stroke-width="1" opacity="1"/><line transform="translate(0,0)" x2="250" y2="0" stroke="#ddd" stroke-width="1" opacity="1"/></g></g><path class="foreground" aria-hidden="true" d="" pointer-events="none" display="none"/></g></g><g class="mark-group role-axis" role="graphics-symbol" aria-roledescription="axis" aria-label="X-axis for a discrete scale with 11 values: Jamestown S'Klallam, Upper Skagit, Skokomish, Lower Elwha, Swinomish, ending with Snoqualmie"><g transform="translate(0.5,300.5)"><path class="background" aria-hidden="true" d="M0,0h0v0h0Z" pointer-events="none"/><g><g class="mark-rule role-axis-tick" pointer-events="none"><line transform="translate(11,0)" x2="0" y2="5" stroke="#888" stroke-width="1" opacity="1"/><line transform="translate(34,0)" x2="0" y2="5" stroke="#888" stroke-width="1" opacity="1"/><line transform="translate(56,0)" x2="0" y2="5" stroke="#888" stroke-width="1" opacity="1"/><line transform="translate(79,0)" x2="0" y2="5" stroke="#888" stroke-width="1" opacity="1"/><line transform="translate(102,0)" x2="0" y2="5" stroke="#888" stroke-width="1" opacity="1"/><line transform="translate(125,0)" x2="0" y2="5" stroke="#888" stroke-width="1" opacity="1"/><line transform="translate(147,0)" x2="0" y2="5" stroke="#888" stroke-width="1" opacity="1"/><line transform="translate(170,0)" x2="0" y2="5" stroke="#888" stroke-width="1" opacity="1"/><line transform="translate(193,0)" x2="0" y2="5" stroke="#888" stroke-width="1" opacity="1"/><line transform="translate(215,0)" x2="0" y2="5" stroke="#888" stroke-width="1" opacity="1"/><line transform="translate(238,0)" x2="0" y2="5" stroke="#888" stroke-width="1" opacity="1"/></g><g class="mark-text role-axis-label" pointer-events="none"><text text-anchor="end" transform="translate(10.863636363636367,7) rotate(270) translate(0,4)" font-family="Agency FB" font-size="14px" fill="#000" opacity="1">Jamestown S'Klallam</text><text text-anchor="end" transform="translate(33.59090909090909,7) rotate(270) translate(0,4)" font-family="Agency FB" font-size="14px" fill="#000" opacity="1">Upper Skagit</text><text text-anchor="end" transform="translate(56.31818181818182,7) rotate(270) translate(0,4)" font-family="Agency FB" font-size="14px" fill="#000" opacity="1">Skokomish</text><text text-anchor="end" transform="translate(79.04545454545456,7) rotate(270) translate(0,4)" font-family="Agency FB" font-size="14px" fill="#000" opacity="1">Lower Elwha</text><text text-anchor="end" transform="translate(101.77272727272728,7) rotate(270) translate(0,4)" font-family="Agency FB" font-size="14px" fill="#000" opacity="1">Swinomish</text><text text-anchor="end" transform="translate(124.5,7) rotate(270) translate(0,4)" font-family="Agency FB" font-size="14px" fill="#000" opacity="1">Lummi</text><text text-anchor="end" transform="translate(147.22727272727272,7) rotate(270) translate(0,4)" font-family="Agency FB" font-size="14px" fill="#000" opacity="1">Kalispel</text><text text-anchor="end" transform="translate(169.95454545454547,7) rotate(270) translate(0,4)" font-family="Agency FB" font-size="14px" fill="#000" opacity="1">Tulalip</text><text text-anchor="end" transform="translate(192.68181818181816,7) rotate(270) translate(0,4)" font-family="Agency FB" font-size="14px" fill="#000" opacity="1">Washington (state)</text><text text-anchor="end" transform="translate(215.4090909090909,7) rotate(270) translate(0,4)" font-family="Agency FB" font-size="14px" fill="#000" opacity="1">Puyallup</text><text text-anchor="end" transform="translate(238.1363636363636,7) rotate(270) translate(0,4)" font-family="Agency FB" font-size="14px" fill="#000" opacity="1">Snoqualmie</text></g><g class="mark-rule role-axis-domain" pointer-events="none"><line transform="translate(0,0)" x2="250" y2="0" stroke="#888" stroke-width="1" opacity="1"/></g></g><path class="foreground" aria-hidden="true" d="" pointer-events="none" display="none"/></g></g><g class="mark-rect role-mark child_marks" role="graphics-object" aria-roledescription="rect mark container"><path aria-label="geoname_abbrev: Jamestown S'Klallam; Unemployment Rate: 16.6666666667; is_us_state: false" role="graphics-symbol" aria-roledescription="bar" d="M1.1363636363636402,49.99999999999949h20.454545454545453v250.0000000000005h-20.454545454545453Z" fill="darkturquoise"/><path aria-label="geoname_abbrev: Kalispel; Unemployment Rate: 7.26744186047; is_us_state: false" role="graphics-symbol" aria-roledescription="bar" d="M137.5,190.9883720930232h20.454545454545453v109.0116279069768h-20.454545454545453Z" fill="darkturquoise"/><path aria-label="geoname_abbrev: Lower Elwha; Unemployment Rate: 10.7142857143; is_us_state: false" role="graphics-symbol" aria-roledescription="bar" d="M69.31818181818183,139.28571428571453h20.454545454545453v160.71428571428547h-20.454545454545453Z" fill="darkturquoise"/><path aria-label="geoname_abbrev: Lummi; Unemployment Rate: 8.60215053763; is_us_state: false" role="graphics-symbol" aria-roledescription="bar" d="M114.77272727272727,170.96774193548384h20.454545454545453v129.03225806451616h-20.454545454545453Z" fill="darkturquoise"/><path aria-label="geoname_abbrev: Puyallup; Unemployment Rate: 4.45466401263; is_us_state: false" role="graphics-symbol" aria-roledescription="bar" d="M205.6818181818182,233.18003981055662h20.454545454545453v66.81996018944338h-20.454545454545453Z" fill="darkturquoise"/><path aria-label="geoname_abbrev: Skokomish; Unemployment Rate: 12.2676579926; is_us_state: false" role="graphics-symbol" aria-roledescription="bar" d="M46.59090909090909,115.9851301115235h20.454545454545453v184.01486988847648h-20.454545454545453Z" fill="darkturquoise"/><path aria-label="geoname_abbrev: Swinomish; Unemployment Rate: 8.89929742389; is_us_state: false" role="graphics-symbol" aria-roledescription="bar" d="M92.04545454545455,166.51053864168614h20.454545454545453v133.48946135831386h-20.454545454545453Z" fill="darkturquoise"/><path aria-label="geoname_abbrev: Tulalip; Unemployment Rate: 6.97206703911; is_us_state: false" role="graphics-symbol" aria-roledescription="bar" d="M160.22727272727275,195.41899441340775h20.454545454545453v104.58100558659225h-20.454545454545453Z" fill="darkturquoise"/><path aria-label="geoname_abbrev: Upper Skagit; Unemployment Rate: 13.4615384615; is_us_state: false" role="graphics-symbol" aria-roledescription="bar" d="M23.863636363636367,98.0769230769225h20.454545454545453v201.9230769230775h-20.454545454545453Z" fill="darkturquoise"/><path aria-label="geoname_abbrev: Washington (state); Unemployment Rate: 4.9843053181; is_us_state: true" role="graphics-symbol" aria-roledescription="bar" d="M182.95454545454544,225.23542022850015h20.454545454545453v74.76457977149985h-20.454545454545453Z" fill="chocolate"/></g><g class="mark-group role-title"><g transform="translate(125,-28)"><path class="background" aria-hidden="true" d="M0,0h0v0h0Z" pointer-events="none"/><g><g class="mark-text role-title-text" role="graphics-symbol" aria-roledescription="title" aria-label="Title text 'Washington'" pointer-events="none"><text text-anchor="middle" transform="translate(0,14)" font-family="Agency FB" font-size="18px" fill="#000" opacity="1">Washington</text></g></g><path class="foreground" aria-hidden="true" d="" pointer-events="none" display="none"/></g></g></g><path class="foreground" aria-hidden="true" d="" display="none"/></g></g><g class="mark-group role-title"><g transform="translate(-39.5390625,-74)"><path class="background" aria-hidden="true" d="M0,0h0v0h0Z" pointer-events="none"/><g><g class="mark-text role-title-text" role="graphics-symbol" aria-roledescription="title" aria-label="Title text 'Northwestern reservations exceed nearby state unemployment rates (2023)'" pointer-events="none"><text text-anchor="start" transform="translate(25,17)" font-family="Agency FB" font-size="22px" font-weight="bold" fill="#000" opacity="1">Northwestern reservations exceed nearby state unemployment rates (2023)</text></g><g class="mark-text role-title-subtitle" role="graphics-symbol" aria-roledescription="subtitle" aria-label="Subtitle text 'State-wide unemployment rates highlighted'" pointer-events="none"><text text-anchor="start" transform="translate(25,37)" font-family="Agency FB" font-size="15px" fill="#000" opacity="1">State-wide unemployment rates highlighted</text></g></g><path class="foreground" aria-hidden="true" d="" pointer-events="none" display="none"/></g></g></g><path class="foreground" aria-hidden="true" d="" display="none"/></g></g></g></svg>