<svg xmlns="http://www.w3.org/2000/svg" xmlns:xlink="http://www.w3.org/1999/xlink" version="1.1" class="marks" width="906" height="499" viewBox="0 0 906 499"><rect width="906" height="499" fill="white"/><g fill="none" stroke-miterlimit="10" transform="translate(293,78)"><g class="mark-group role-frame root" role="graphics-object" aria-roledescription="group mark container"><g transform="translate(0,0)"><path class="background" aria-hidden="true" d="M0,0h0v0h0Z"/><g><g class="mark-group role-row-title row-title" role="graphics-object" aria-roledescription="group mark container"><g transform="translate(-258,186)"><path class="background" aria-hidden="true" d="M0,0h0v0h0Z"/><g><g class="mark-group role-title"><g transform="translate(-30.000000000000007,0)"><path class="background" aria-hidden="true" d="M0,0h0v0h0Z" pointer-events="none"/><g><g class="mark-text role-title-text" role="graphics-symbol" aria-roledescription="title" aria-label="Title text 'Socioeconomic outcome'" pointer-events="none"><text text-anchor="middle" transform="translate(0,0) rotate(-90) translate(0,16)" font-family="Agency FB" font-size="20px" font-weight="bold" fill="#000" opacity="1">Socioeconomic outcome</text></g></g><path class="foreground" aria-hidden="true" d="" pointer-events="none" display="none"/></g></g></g><path class="foreground" aria-hidden="true" d="" display="none"/></g></g><g class="mark-group role-row-header row_header" role="graphics-object" aria-roledescription="group mark container"><g transform="translate(-41,0)"><path class="background" aria-hidden="true" d="M0,0h0v100h0Z"/><g><g class="mark-group role-title"><g transform="translate(-90.517578125,50)"><path class="background" aria-hidden="true" d="M0,0h0v0h0Z" pointer-events="none"/><g><g class="mark-text role-title-text" role="graphics-symbol" aria-roledescription="title" aria-label="Title text '% in poverty'" pointer-events="none"><text text-anchor="start" transform="translate(0,6)" font-family="Agency FB" font-size="20px" fill="#000" opacity="1">% in poverty</text></g></g><path class="foreground" aria-hidden="true" d="" pointer-events="none" display="none"/></g></g></g><path class="foreground" aria-hidden="true" d="" display="none"/></g><g transform="translate(-41,136)"><path class="background" aria-hidden="true" d="M0,0h0v100h0Z"/><g><g class="mark-group role-title"><g transform="translate(-206.591796875,50)"><path class="background" aria-hidden="true" d="M0,0h0v0h0Z" pointer-events="none"/><g><g class="mark-text role-title-text" role="graphics-symbol" aria-roledescription="title" aria-label="Title text '% of homes occupied by owner'" pointer-events="none"><text text-anchor="start" transform="translate(0,6)" font-family="Agency FB" font-size="20px" fill="#000" opacity="1">% of homes occupied by owner</text></g></g><path class="foreground" aria-hidden="true" d="" pointer-events="none" display="none"/></g></g></g><path class="foreground" aria-hidden="true" d="" display="none"/></g><g transform="translate(-41,267)"><path class="background" aria-hidden="true" d="M0,0h0v100h0Z"/><g><g class="mark-group role-title"><g transform="translate(-170.234375,50)"><path class="background" aria-hidden="true" d="M0,0h0v0h0Z" pointer-events="none"/><g><g class="mark-text role-title-text" role="graphics-symbol" aria-roledescription="title" aria-label="Title text 'Median household income'" pointer-events="none"><text text-anchor="start" transform="translate(0,6)" font-family="Agency FB" font-size="20px" fill="#000" opacity="1">Median household income</text></g></g><path class="foreground" aria-hidden="true" d="" pointer-events="none" display="none"/></g></g></g><path class="foreground" aria-hidden="true" d="" display="none"/></g></g><g class="mark-group role-column-footer column_footer" role="graphics-object" aria-roledescription="group mark container"><g transform="translate(0,375)"><path class="background" aria-hidden="true" d="M0,0h500v0h-500Z"/><g><g class="mark-group role-axis" role="graphics-symbol" aria-roledescription="axis" aria-label="X-axis titled 'Year' for a time scale with values from Monday, 01 January 1990, 12:00:00 AM to Sunday, 01 January 2023, 12:00:00 AM"><g transform="translate(0.5,0.5)"><path class="background" aria-hidden="true" d="M0,0h0v0h0Z" pointer-events="none"/><g><g class="mark-rule role-axis-tick" pointer-events="none"><line transform="translate(0,0)" x2="0" y2="5" stroke="#888" stroke-width="1" opacity="1"/><line transform="translate(30,0)" x2="0" y2="5" stroke="#888" stroke-width="1" opacity="1"/><line transform="translate(61,0)" x2="0" y2="5" stroke="#888" stroke-width="1" opacity="1"/><line transform="translate(91,0)" x2="0" y2="5" stroke="#888" stroke-width="1" opacity="1"/><line transform="translate(121,0)" x2="0" y2="5" stroke="#888" stroke-width="1" opacity="1"/><line transform="translate(151,0)" x2="0" y2="5" stroke="#888" stroke-width="1" opacity="1"/><line transform="translate(182,0)" x2="0" y2="5" stroke="#888" stroke-width="1" opacity="1"/><line transform="translate(212,0)" x2="0" y2="5" stroke="#888" stroke-width="1" opacity="1"/><line transform="translate(242,0)" x2="0" y2="5" stroke="#888" stroke-width="1" opacity="1"/><line transform="translate(273,0)" x2="0" y2="5" stroke="#888" stroke-width="1" opacity="1"/><line transform="translate(303,0)" x2="0" y2="5" stroke="#888" stroke-width="1" opacity="1"/><line transform="translate(333,0)" x2="0" y2="5" stroke="#888" stroke-width="1" opacity="1"/><line transform="translate(364,0)" x2="0" y2="5" stroke="#888" stroke-width="1" opacity="1"/><line transform="translate(394,0)" x2="0" y2="5" stroke="#888" stroke-width="1" opacity="1"/><line transform="translate(424,0)" x2="0" y2="5" stroke="#888" stroke-width="1" opacity="1"/><line transform="translate(455,0)" x2="0" y2="5" stroke="#888" stroke-width="1" opacity="1"/><line transform="translate(485,0)" x2="0" y2="5" stroke="#888" stroke-width="1" opacity="1"/></g><g class="mark-text role-axis-label" pointer-events="none"><text text-anchor="start" transform="translate(0,18)" font-family="Agency FB" font-size="14px" fill="#000" opacity="1">1990</text><text text-anchor="middle" transform="translate(30.28291711607069,18)" font-family="Agency FB" font-size="14px" fill="#000" opacity="0">1992</text><text text-anchor="middle" transform="translate(60.607317680245586,18)" font-family="Agency FB" font-size="14px" fill="#000" opacity="1">1994</text><text text-anchor="middle" transform="translate(90.89023479631626,18)" font-family="Agency FB" font-size="14px" fill="#000" opacity="0">1996</text><text text-anchor="middle" transform="translate(121.21463536049117,18)" font-family="Agency FB" font-size="14px" fill="#000" opacity="1">1998</text><text text-anchor="middle" transform="translate(151.49755247656185,18)" font-family="Agency FB" font-size="14px" fill="#000" opacity="0">2000</text><text text-anchor="middle" transform="translate(181.82195304073676,18)" font-family="Agency FB" font-size="14px" fill="#000" opacity="1">2002</text><text text-anchor="middle" transform="translate(212.10487015680744,18)" font-family="Agency FB" font-size="14px" fill="#000" opacity="0">2004</text><text text-anchor="middle" transform="translate(242.42927072098234,18)" font-family="Agency FB" font-size="14px" fill="#000" opacity="1">2006</text><text text-anchor="middle" transform="translate(272.712187837053,18)" font-family="Agency FB" font-size="14px" fill="#000" opacity="0">2008</text><text text-anchor="middle" transform="translate(303.03658840122796,18)" font-family="Agency FB" font-size="14px" fill="#000" opacity="1">2010</text><text text-anchor="middle" transform="translate(333.3195055172986,18)" font-family="Agency FB" font-size="14px" fill="#000" opacity="0">2012</text><text text-anchor="middle" transform="translate(363.6439060814735,18)" font-family="Agency FB" font-size="14px" fill="#000" opacity="1">2014</text><text text-anchor="middle" transform="translate(393.9268231975442,18)" font-family="Agency FB" font-size="14px" fill="#000" opacity="0">2016</text><text text-anchor="middle" transform="translate(424.2512237617191,18)" font-family="Agency FB" font-size="14px" fill="#000" opacity="1">2018</text><text text-anchor="middle" transform="translate(454.53414087778975,18)" font-family="Agency FB" font-size="14px" fill="#000" opacity="0">2020</text><text text-anchor="middle" transform="translate(484.8585414419647,18)" font-family="Agency FB" font-size="14px" fill="#000" opacity="1">2022</text></g><g class="mark-rule role-axis-domain" pointer-events="none"><line transform="translate(0,0)" x2="500" y2="0" stroke="#888" stroke-width="1" opacity="1"/></g><g class="mark-text role-axis-title" pointer-events="none"><text text-anchor="middle" transform="translate(250,38)" font-family="Agency FB" font-size="16px" font-weight="bold" fill="#000" opacity="1">Year</text></g></g><path class="foreground" aria-hidden="true" d="" pointer-events="none" display="none"/></g></g></g><path class="foreground" aria-hidden="true" d="" display="none"/></g></g><g class="mark-group role-scope cell" role="graphics-object" aria-roledescription="group mark container"><g transform="translate(0,0)"><path class="background" aria-hidden="true" d="M0.5,0.5h500v100h-500Z" stroke="#ddd"/><g><g class="mark-group role-axis" aria-hidden="true"><g transform="translate(0.5,100.5)"><path class="background" aria-hidden="true" d="M0,0h0v0h0Z" pointer-events="none"/><g><g class="mark-rule role-axis-grid" pointer-events="none"><line transform="translate(0,-100)" x2="0" y2="100" stroke="#ddd" stroke-width="1" opacity="1"/><line transform="translate(30,-100)" x2="0" y2="100" stroke="#ddd" stroke-width="1" opacity="1"/><line transform="translate(61,-100)" x2="0" y2="100" stroke="#ddd" stroke-width="1" opacity="1"/><line transform="translate(91,-100)" x2="0" y2="100" stroke="#ddd" stroke-width="1" opacity="1"/><line transform="translate(121,-100)" x2="0" y2="100" stroke="#ddd" stroke-width="1" opacity="1"/><line transform="translate(151,-100)" x2="0" y2="100" stroke="#ddd" stroke-width="1" opacity="1"/><line transform="translate(182,-100)" x2="0" y2="100" stroke="#ddd" stroke-width="1" opacity="1"/><line transform="translate(212,-100)" x2="0" y2="100" stroke="#ddd" stroke-width="1" opacity="1"/><line transform="translate(242,-100)" x2="0" y2="100" stroke="#ddd" stroke-width="1" opacity="1"/><line transform="translate(273,-100)" x2="0" y2="100" stroke="#ddd" stroke-width="1" opacity="1"/><line transform="translate(303,-100)" x2="0" y2="100" stroke="#ddd" stroke-width="1" opacity="1"/><line transform="translate(333,-100)" x2="0" y2="100" stroke="#ddd" stroke-width="1" opacity="1"/><line transform="translate(364,-100)" x2="0" y2="100" stroke="#ddd" stroke-width="1" opacity="1"/><line transform="translate(394,-100)" x2="0" y2="100" stroke="#ddd" stroke-width="1" opacity="1"/><line transform="translate(424,-100)" x2="0" y2="100" stroke="#ddd" stroke-width="1" opacity="1"/><line transform="translate(455,-100)" x2="0" y2="100" stroke="#ddd" stroke-width="1" opacity="1"/><line transform="translate(485,-100)" x2="0" y2="100" stroke="#ddd" stroke-width="1" opacity="1"/></g></g><path class="foreground" aria-hidden="true" d="" pointer-events="none" display="none"/></g></g><g class="mark-group role-axis" aria-hidden="true"><g transform="translate(0.5,0.5)"><path class="background" aria-hidden="true" d="M0,0h0v0h0Z" pointer-events="none"/><g><g class="mark-rule role-axis-grid" pointer-events="none"><line transform="translate(0,100)" x2="500" y2="0" stroke="#ddd" stroke-width="1" opacity="1"/><line transform="translate(0,69)" x2="500" y2="0" stroke="#ddd" stroke-width="1" opacity="1"/><line transform="translate(0,38)" x2="500" y2="0" stroke="#ddd" stroke-width="1" opacity="1"/><line transform="translate(0,8)" x2="500" y2="0" stroke="#ddd" stroke-width="1" opacity="1"/></g></g><path class="foreground" aria-hidden="true" d="" pointer-events="none" display="none"/></g></g><g class="mark-group role-axis" role="graphics-symbol" aria-roledescription="axis" aria-label="Y-axis for a linear scale with values from 0 to 65"><g transform="translate(0.5,0.5)"><path class="background" aria-hidden="true" d="M0,0h0v0h0Z" pointer-events="none"/><g><g class="mark-rule role-axis-tick" pointer-events="none"><line transform="translate(0,100)" x2="-5" y2="0" stroke="#888" stroke-width="1" opacity="1"/><line transform="translate(0,69)" x2="-5" y2="0" stroke="#888" stroke-width="1" opacity="1"/><line transform="translate(0,38)" x2="-5" y2="0" stroke="#888" stroke-width="1" opacity="1"/><line transform="translate(0,8)" x2="-5" y2="0" stroke="#888" stroke-width="1" opacity="1"/></g><g class="mark-text role-axis-label" pointer-events="none"><text text-anchor="end" transform="translate(-7,104)" font-family="Agency FB" font-size="14px" fill="#000" opacity="1">0</text><text text-anchor="end" transform="translate(-7,73.23076923076923)" font-family="Agency FB" font-size="14px" fill="#000" opacity="1">20</text><text text-anchor="end" transform="translate(-7,42.46153846153846)" font-family="Agency FB" font-size="14px" fill="#000" opacity="1">40</text><text text-anchor="end" transform="translate(-7,11.692307692307686)" font-family="Agency FB" font-size="14px" fill="#000" opacity="1">60</text></g><g class="mark-rule role-axis-domain" pointer-events="none"><line transform="translate(0,100)" x2="0" y2="-100" stroke="#888" stroke-width="1" opacity="1"/></g></g><path class="foreground" aria-hidden="true" d="" pointer-events="none" display="none"/></g></g><g class="mark-group role-scope child_pathgroup" role="graphics-object" aria-roledescription="group mark container"><g transform="translate(0,0)"><path class="background" aria-hidden="true" d="M0,0h500v100h-500Z"/><g><g class="mark-line role-mark child_marks" role="graphics-object" aria-roledescription="line mark container"><path aria-label="Year: Jan 01, 1990; value: 62.7366143862; Population group: aiana; geoname_mostrecent: Blackfeet Indian Reservation and Off-Reservation Trust Land" role="graphics-symbol" aria-roledescription="line mark" d="M0,3.482L151.498,46.91M348.502,34.598L424.251,39.582M500,45.349Z" stroke="#4c78a8" stroke-width="2" opacity="0.5"/></g></g><path class="foreground" aria-hidden="true" d="" display="none"/></g><g transform="translate(0,0)"><path class="background" aria-hidden="true" d="M0,0h500v100h-500Z"/><g><g class="mark-line role-mark child_marks" role="graphics-object" aria-roledescription="line mark container"><path aria-label="Year: Jan 01, 1990; value: 49.273144606; Population group: aiana; geoname_mostrecent: Flathead Reservation" role="graphics-symbol" aria-roledescription="line mark" d="M0,24.195L151.498,47.046M348.502,47.304L424.251,46.248M500,54.335Z" stroke="#4c78a8" stroke-width="2" opacity="0.5"/></g></g><path class="foreground" aria-hidden="true" d="" display="none"/></g><g transform="translate(0,0)"><path class="background" aria-hidden="true" d="M0,0h500v100h-500Z"/><g><g class="mark-line role-mark child_marks" role="graphics-object" aria-roledescription="line mark container"><path aria-label="Year: Jan 01, 1990; value: 57.8924259056; Population group: aiana; geoname_mostrecent: Fort Peck Indian Reservation and Off-Reservation Trust Land" role="graphics-symbol" aria-roledescription="line mark" d="M0,10.935L151.498,24.559M348.502,35.485L424.251,37.342M500,28.623Z" stroke="#4c78a8" stroke-width="2" opacity="0.5"/></g></g><path class="foreground" aria-hidden="true" d="" display="none"/></g><g transform="translate(0,0)"><path class="background" aria-hidden="true" d="M0,0h500v100h-500Z"/><g><g class="mark-line role-mark child_marks" role="graphics-object" aria-roledescription="line mark container"><path aria-label="Year: Jan 01, 1990; value: 57.0429116932; Population group: aiana; geoname_mostrecent: Montana (state)" role="graphics-symbol" aria-roledescription="line mark" d="M0,12.242L151.498,40.966M348.502,42.957L424.251,47.477M500,47.905Z" stroke="#4c78a8" stroke-width="2" opacity="0.5"/></g></g><path class="foreground" aria-hidden="true" d="" display="none"/></g><g transform="translate(0,0)"><path class="background" aria-hidden="true" d="M0,0h500v100h-500Z"/><g><g class="mark-line role-mark child_marks" role="graphics-object" aria-roledescription="line mark container"><path aria-label="Year: Jan 01, 1990; value: 64.5276292335; Population group: aiana; geoname_mostrecent: Northern Cheyenne Indian Reservation and Off-Reservation Trust Land" role="graphics-symbol" aria-roledescription="line mark" d="M0,0.727L151.498,22.659M348.502,34.96L424.251,42.149M500,34.146Z" stroke="#4c78a8" stroke-width="2" opacity="0.5"/></g></g><path class="foreground" aria-hidden="true" d="" display="none"/></g><g transform="translate(0,0)"><path class="background" aria-hidden="true" d="M0,0h500v100h-500Z"/><g><g class="mark-line role-mark child_marks" role="graphics-object" aria-roledescription="line mark container"><path aria-label="Year: Jan 01, 1990; value: 62.0218579235; Population group: aiana; geoname_mostrecent: Rocky Boy's Reservation and Off-Reservation Trust Land" role="graphics-symbol" aria-roledescription="line mark" d="M0,4.582L151.498,36.806M348.502,42.829L424.251,40.269M500,45.171Z" stroke="#4c78a8" stroke-width="2" opacity="0.5"/></g></g><path class="foreground" aria-hidden="true" d="" display="none"/></g><g transform="translate(0,0)"><path class="background" aria-hidden="true" d="M0,0h500v100h-500Z"/><g><g class="mark-line role-mark child_marks" role="graphics-object" aria-roledescription="line mark container"><path aria-label="Year: Jan 01, 1990; value: 46.9557864218; Population group: total; geoname_mostrecent: Blackfeet Indian Reservation and Off-Reservation Trust Land" role="graphics-symbol" aria-roledescription="line mark" d="M0,27.76L151.498,48.05M348.502,39.298L424.251,43.338M500,49.246Z" stroke="#f58518" stroke-width="2" opacity="0.5"/></g></g><path class="foreground" aria-hidden="true" d="" display="none"/></g><g transform="translate(0,0)"><path class="background" aria-hidden="true" d="M0,0h500v100h-500Z"/><g><g class="mark-line role-mark child_marks" role="graphics-object" aria-roledescription="line mark container"><path aria-label="Year: Jan 01, 1990; value: 22.8596389051; Population group: total; geoname_mostrecent: Flathead Reservation" role="graphics-symbol" aria-roledescription="line mark" d="M0,64.831L151.498,68.843M348.502,63.389L424.251,65.32M500,70.512Z" stroke="#f58518" stroke-width="2" opacity="0.5"/></g></g><path class="foreground" aria-hidden="true" d="" display="none"/></g><g transform="translate(0,0)"><path class="background" aria-hidden="true" d="M0,0h500v100h-500Z"/><g><g class="mark-line role-mark child_marks" role="graphics-object" aria-roledescription="line mark container"><path aria-label="Year: Jan 01, 1990; value: 31.5784463062; Population group: total; geoname_mostrecent: Fort Peck Indian Reservation and Off-Reservation Trust Land" role="graphics-symbol" aria-roledescription="line mark" d="M0,51.418L151.498,45.617M348.502,54.476L424.251,52.66M500,48.337Z" stroke="#f58518" stroke-width="2" opacity="0.5"/></g></g><path class="foreground" aria-hidden="true" d="" display="none"/></g><g transform="translate(0,0)"><path class="background" aria-hidden="true" d="M0,0h500v100h-500Z"/><g><g class="mark-line role-mark child_marks" role="graphics-object" aria-roledescription="line mark container"><path aria-label="Year: Jan 01, 1990; value: 16.0728791325; Population group: total; geoname_mostrecent: Montana (state)" role="graphics-symbol" aria-roledescription="line mark" d="M0,75.272L151.498,77.529M348.502,76.54L424.251,78.951M500,81.468Z" stroke="#f58518" stroke-width="2" opacity="0.5"/></g></g><path class="foreground" aria-hidden="true" d="" display="none"/></g><g transform="translate(0,0)"><path class="background" aria-hidden="true" d="M0,0h500v100h-500Z"/><g><g class="mark-line role-mark child_marks" role="graphics-object" aria-roledescription="line mark container"><path aria-label="Year: Jan 01, 1990; value: 48.1731018399; Population group: total; geoname_mostrecent: Northern Cheyenne Indian Reservation and Off-Reservation Trust Land" role="graphics-symbol" aria-roledescription="line mark" d="M0,25.888L151.498,29.067M348.502,40.285L424.251,45.651M500,37.399Z" stroke="#f58518" stroke-width="2" opacity="0.5"/></g></g><path class="foreground" aria-hidden="true" d="" display="none"/></g><g transform="translate(0,0)"><path class="background" aria-hidden="true" d="M0,0h500v100h-500Z"/><g><g class="mark-line role-mark child_marks" role="graphics-object" aria-roledescription="line mark container"><path aria-label="Year: Jan 01, 1990; value: 47.4831344058; Population group: total; geoname_mostrecent: Rocky Boy's Reservation and Off-Reservation Trust Land" role="graphics-symbol" aria-roledescription="line mark" d="M0,26.949L151.498,37.167M348.502,44.181L424.251,38.675M500,46.232Z" stroke="#f58518" stroke-width="2" opacity="0.5"/></g></g><path class="foreground" aria-hidden="true" d="" display="none"/></g></g></g><path class="foreground" aria-hidden="true" d="" display="none"/></g><g transform="translate(0,136)"><path class="background" aria-hidden="true" d="M0.5,0.5h500v100h-500Z" stroke="#ddd"/><g><g class="mark-group role-axis" aria-hidden="true"><g transform="translate(0.5,100.5)"><path class="background" aria-hidden="true" d="M0,0h0v0h0Z" pointer-events="none"/><g><g class="mark-rule role-axis-grid" pointer-events="none"><line transform="translate(0,-100)" x2="0" y2="100" stroke="#ddd" stroke-width="1" opacity="1"/><line transform="translate(30,-100)" x2="0" y2="100" stroke="#ddd" stroke-width="1" opacity="1"/><line transform="translate(61,-100)" x2="0" y2="100" stroke="#ddd" stroke-width="1" opacity="1"/><line transform="translate(91,-100)" x2="0" y2="100" stroke="#ddd" stroke-width="1" opacity="1"/><line transform="translate(121,-100)" x2="0" y2="100" stroke="#ddd" stroke-width="1" opacity="1"/><line transform="translate(151,-100)" x2="0" y2="100" stroke="#ddd" stroke-width="1" opacity="1"/><line transform="translate(182,-100)" x2="0" y2="100" stroke="#ddd" stroke-width="1" opacity="1"/><line transform="translate(212,-100)" x2="0" y2="100" stroke="#ddd" stroke-width="1" opacity="1"/><line transform="translate(242,-100)" x2="0" y2="100" stroke="#ddd" stroke-width="1" opacity="1"/><line transform="translate(273,-100)" x2="0" y2="100" stroke="#ddd" stroke-width="1" opacity="1"/><line transform="translate(303,-100)" x2="0" y2="100" stroke="#ddd" stroke-width="1" opacity="1"/><line transform="translate(333,-100)" x2="0" y2="100" stroke="#ddd" stroke-width="1" opacity="1"/><line transform="translate(364,-100)" x2="0" y2="100" stroke="#ddd" stroke-width="1" opacity="1"/><line transform="translate(394,-100)" x2="0" y2="100" stroke="#ddd" stroke-width="1" opacity="1"/><line transform="translate(424,-100)" x2="0" y2="100" stroke="#ddd" stroke-width="1" opacity="1"/><line transform="translate(455,-100)" x2="0" y2="100" stroke="#ddd" stroke-width="1" opacity="1"/><line transform="translate(485,-100)" x2="0" y2="100" stroke="#ddd" stroke-width="1" opacity="1"/></g></g><path class="foreground" aria-hidden="true" d="" pointer-events="none" display="none"/></g></g><g class="mark-group role-axis" aria-hidden="true"><g transform="translate(0.5,0.5)"><path class="background" aria-hidden="true" d="M0,0h0v0h0Z" pointer-events="none"/><g><g class="mark-rule role-axis-grid" pointer-events="none"><line transform="translate(0,100)" x2="500" y2="0" stroke="#ddd" stroke-width="1" opacity="1"/><line transform="translate(0,75)" x2="500" y2="0" stroke="#ddd" stroke-width="1" opacity="1"/><line transform="translate(0,50)" x2="500" y2="0" stroke="#ddd" stroke-width="1" opacity="1"/><line transform="translate(0,25)" x2="500" y2="0" stroke="#ddd" stroke-width="1" opacity="1"/><line transform="translate(0,0)" x2="500" y2="0" stroke="#ddd" stroke-width="1" opacity="1"/></g></g><path class="foreground" aria-hidden="true" d="" pointer-events="none" display="none"/></g></g><g class="mark-group role-axis" role="graphics-symbol" aria-roledescription="axis" aria-label="Y-axis for a linear scale with values from 0 to 80"><g transform="translate(0.5,0.5)"><path class="background" aria-hidden="true" d="M0,0h0v0h0Z" pointer-events="none"/><g><g class="mark-rule role-axis-tick" pointer-events="none"><line transform="translate(0,100)" x2="-5" y2="0" stroke="#888" stroke-width="1" opacity="1"/><line transform="translate(0,75)" x2="-5" y2="0" stroke="#888" stroke-width="1" opacity="1"/><line transform="translate(0,50)" x2="-5" y2="0" stroke="#888" stroke-width="1" opacity="1"/><line transform="translate(0,25)" x2="-5" y2="0" stroke="#888" stroke-width="1" opacity="1"/><line transform="translate(0,0)" x2="-5" y2="0" stroke="#888" stroke-width="1" opacity="1"/></g><g class="mark-text role-axis-label" pointer-events="none"><text text-anchor="end" transform="translate(-7,104)" font-family="Agency FB" font-size="14px" fill="#000" opacity="1">0</text><text text-anchor="end" transform="translate(-7,79)" font-family="Agency FB" font-size="14px" fill="#000" opacity="1">20</text><text text-anchor="end" transform="translate(-7,54)" font-family="Agency FB" font-size="14px" fill="#000" opacity="1">40</text><text text-anchor="end" transform="translate(-7,29)" font-family="Agency FB" font-size="14px" fill="#000" opacity="1">60</text><text text-anchor="end" transform="translate(-7,4)" font-family="Agency FB" font-size="14px" fill="#000" opacity="1">80</text></g><g class="mark-rule role-axis-domain" pointer-events="none"><line transform="translate(0,100)" x2="0" y2="-100" stroke="#888" stroke-width="1" opacity="1"/></g></g><path class="foreground" aria-hidden="true" d="" pointer-events="none" display="none"/></g></g><g class="mark-group role-scope child_pathgroup" role="graphics-object" aria-roledescription="group mark container"><g transform="translate(0,0)"><path class="background" aria-hidden="true" d="M0,0h500v100h-500Z"/><g><g class="mark-line role-mark child_marks" role="graphics-object" aria-roledescription="line mark container"><path aria-label="Year: Jan 01, 1990; value: 51.7628205128; Population group: aiana; geoname_mostrecent: Blackfeet Indian Reservation and Off-Reservation Trust Land" role="graphics-symbol" aria-roledescription="line mark" d="M0,35.296L151.498,30.637L303.037,28.578L348.502,30.801L424.251,30.204L454.534,30.655L500,26.886" stroke="#4c78a8" stroke-width="2" opacity="0.5"/></g></g><path class="foreground" aria-hidden="true" d="" display="none"/></g><g transform="translate(0,0)"><path class="background" aria-hidden="true" d="M0,0h500v100h-500Z"/><g><g class="mark-line role-mark child_marks" role="graphics-object" aria-roledescription="line mark container"><path aria-label="Year: Jan 01, 1990; value: 60.3348729792; Population group: aiana; geoname_mostrecent: Flathead Reservation" role="graphics-symbol" aria-roledescription="line mark" d="M0,24.581L151.498,25.827L303.037,27.964L348.502,26.359L424.251,24.583L454.534,28.029L500,33.01" stroke="#4c78a8" stroke-width="2" opacity="0.5"/></g></g><path class="foreground" aria-hidden="true" d="" display="none"/></g><g transform="translate(0,0)"><path class="background" aria-hidden="true" d="M0,0h500v100h-500Z"/><g><g class="mark-line role-mark child_marks" role="graphics-object" aria-roledescription="line mark container"><path aria-label="Year: Jan 01, 1990; value: 48.8372093023; Population group: aiana; geoname_mostrecent: Fort Peck Indian Reservation and Off-Reservation Trust Land" role="graphics-symbol" aria-roledescription="line mark" d="M0,38.953L151.498,34.593L303.037,38.826L348.502,45.509L424.251,42.29L454.534,37.328L500,23.226" stroke="#4c78a8" stroke-width="2" opacity="0.5"/></g></g><path class="foreground" aria-hidden="true" d="" display="none"/></g><g transform="translate(0,0)"><path class="background" aria-hidden="true" d="M0,0h500v100h-500Z"/><g><g class="mark-line role-mark child_marks" role="graphics-object" aria-roledescription="line mark container"><path aria-label="Year: Jan 01, 1990; value: 47.9440665155; Population group: aiana; geoname_mostrecent: Montana (state)" role="graphics-symbol" aria-roledescription="line mark" d="M0,40.07L151.498,38.062L303.037,39.769L348.502,38.92L424.251,41.221L454.534,39.877L500,38.87" stroke="#4c78a8" stroke-width="2" opacity="0.5"/></g></g><path class="foreground" aria-hidden="true" d="" display="none"/></g><g transform="translate(0,0)"><path class="background" aria-hidden="true" d="M0,0h500v100h-500Z"/><g><g class="mark-line role-mark child_marks" role="graphics-object" aria-roledescription="line mark container"><path aria-label="Year: Jan 01, 1990; value: 62.9545454545; Population group: aiana; geoname_mostrecent: Northern Cheyenne Indian Reservation and Off-Reservation Trust Land" role="graphics-symbol" aria-roledescription="line mark" d="M0,21.307L151.498,35.885L303.037,29.921L348.502,29.955L424.251,33.633L454.534,28.871L500,36.194" stroke="#4c78a8" stroke-width="2" opacity="0.5"/></g></g><path class="foreground" aria-hidden="true" d="" display="none"/></g><g transform="translate(0,0)"><path class="background" aria-hidden="true" d="M0,0h500v100h-500Z"/><g><g class="mark-line role-mark child_marks" role="graphics-object" aria-roledescription="line mark container"><path aria-label="Year: Jan 01, 1990; value: 51.3513513514; Population group: aiana; geoname_mostrecent: Rocky Boy's Reservation and Off-Reservation Trust Land" role="graphics-symbol" aria-roledescription="line mark" d="M0,35.811L151.498,46.545L303.037,47.491L348.502,42.527L424.251,50.058L454.534,45.406L500,47.602" stroke="#4c78a8" stroke-width="2" opacity="0.5"/></g></g><path class="foreground" aria-hidden="true" d="" display="none"/></g><g transform="translate(0,0)"><path class="background" aria-hidden="true" d="M0,0h500v100h-500Z"/><g><g class="mark-line role-mark child_marks" role="graphics-object" aria-roledescription="line mark container"><path aria-label="Year: Jan 01, 1990; value: 52.9789969996; Population group: total; geoname_mostrecent: Blackfeet Indian Reservation and Off-Reservation Trust Land" role="graphics-symbol" aria-roledescription="line mark" d="M0,33.776L151.498,30.636L303.037,27.496L348.502,30.166L424.251,27.748L454.534,29.288L500,25.058" stroke="#f58518" stroke-width="2" opacity="0.5"/></g></g><path class="foreground" aria-hidden="true" d="" display="none"/></g><g transform="translate(0,0)"><path class="background" aria-hidden="true" d="M0,0h500v100h-500Z"/><g><g class="mark-line role-mark child_marks" role="graphics-object" aria-roledescription="line mark container"><path aria-label="Year: Jan 01, 1990; value: 69.8755397511; Population group: total; geoname_mostrecent: Flathead Reservation" role="graphics-symbol" aria-roledescription="line mark" d="M0,12.656L151.498,11.781L303.037,12.325L348.502,14.872L424.251,11.164L454.534,12.284L500,10.903" stroke="#f58518" stroke-width="2" opacity="0.5"/></g></g><path class="foreground" aria-hidden="true" d="" display="none"/></g><g transform="translate(0,0)"><path class="background" aria-hidden="true" d="M0,0h500v100h-500Z"/><g><g class="mark-line role-mark child_marks" role="graphics-object" aria-roledescription="line mark container"><path aria-label="Year: Jan 01, 1990; value: 62.6488527447; Population group: total; geoname_mostrecent: Fort Peck Indian Reservation and Off-Reservation Trust Land" role="graphics-symbol" aria-roledescription="line mark" d="M0,21.689L151.498,20.319L303.037,23.577L348.502,28.398L424.251,27.677L454.534,26.274L500,15.73" stroke="#f58518" stroke-width="2" opacity="0.5"/></g></g><path class="foreground" aria-hidden="true" d="" display="none"/></g><g transform="translate(0,0)"><path class="background" aria-hidden="true" d="M0,0h500v100h-500Z"/><g><g class="mark-line role-mark child_marks" role="graphics-object" aria-roledescription="line mark container"><path aria-label="Year: Jan 01, 1990; value: 67.2514314271; Population group: total; geoname_mostrecent: Montana (state)" role="graphics-symbol" aria-roledescription="line mark" d="M0,15.936L151.498,13.665L303.037,15.035L348.502,14.636L424.251,15.369L454.534,15.878L500,13.221" stroke="#f58518" stroke-width="2" opacity="0.5"/></g></g><path class="foreground" aria-hidden="true" d="" display="none"/></g><g transform="translate(0,0)"><path class="background" aria-hidden="true" d="M0,0h500v100h-500Z"/><g><g class="mark-line role-mark child_marks" role="graphics-object" aria-roledescription="line mark container"><path aria-label="Year: Jan 01, 1990; value: 58.6602870813; Population group: total; geoname_mostrecent: Northern Cheyenne Indian Reservation and Off-Reservation Trust Land" role="graphics-symbol" aria-roledescription="line mark" d="M0,26.675L151.498,38.971L303.037,33.158L348.502,32.814L424.251,34.792L454.534,29.446L500,36.349" stroke="#f58518" stroke-width="2" opacity="0.5"/></g></g><path class="foreground" aria-hidden="true" d="" display="none"/></g><g transform="translate(0,0)"><path class="background" aria-hidden="true" d="M0,0h500v100h-500Z"/><g><g class="mark-line role-mark child_marks" role="graphics-object" aria-roledescription="line mark container"><path aria-label="Year: Jan 01, 1990; value: 49.1990846682; Population group: total; geoname_mostrecent: Rocky Boy's Reservation and Off-Reservation Trust Land" role="graphics-symbol" aria-roledescription="line mark" d="M0,38.501L151.498,46.234L303.037,47.282L348.502,43.613L424.251,49.321L454.534,45.321L500,46.859" stroke="#f58518" stroke-width="2" opacity="0.5"/></g></g><path class="foreground" aria-hidden="true" d="" display="none"/></g></g></g><path class="foreground" aria-hidden="true" d="" display="none"/></g><g transform="translate(0,267)"><path class="background" aria-hidden="true" d="M0.5,0.5h500v100h-500Z" stroke="#ddd"/><g><g class="mark-group role-axis" aria-hidden="true"><g transform="translate(0.5,100.5)"><path class="background" aria-hidden="true" d="M0,0h0v0h0Z" pointer-events="none"/><g><g class="mark-rule role-axis-grid" pointer-events="none"><line transform="translate(0,-100)" x2="0" y2="100" stroke="#ddd" stroke-width="1" opacity="1"/><line transform="translate(30,-100)" x2="0" y2="100" stroke="#ddd" stroke-width="1" opacity="1"/><line transform="translate(61,-100)" x2="0" y2="100" stroke="#ddd" stroke-width="1" opacity="1"/><line transform="translate(91,-100)" x2="0" y2="100" stroke="#ddd" stroke-width="1" opacity="1"/><line transform="translate(121,-100)" x2="0" y2="100" stroke="#ddd" stroke-width="1" opacity="1"/><line transform="translate(151,-100)" x2="0" y2="100" stroke="#ddd" stroke-width="1" opacity="1"/><line transform="translate(182,-100)" x2="0" y2="100" stroke="#ddd" stroke-width="1" opacity="1"/><line transform="translate(212,-100)" x2="0" y2="100" stroke="#ddd" stroke-width="1" opacity="1"/><line transform="translate(242,-100)" x2="0" y2="100" stroke="#ddd" stroke-width="1" opacity="1"/><line transform="translate(273,-100)" x2="0" y2="100" stroke="#ddd" stroke-width="1" opacity="1"/><line transform="translate(303,-100)" x2="0" y2="100" stroke="#ddd" stroke-width="1" opacity="1"/><line transform="translate(333,-100)" x2="0" y2="100" stroke="#ddd" stroke-width="1" opacity="1"/><line transform="translate(364,-100)" x2="0" y2="100" stroke="#ddd" stroke-width="1" opacity="1"/><line transform="translate(394,-100)" x2="0" y2="100" stroke="#ddd" stroke-width="1" opacity="1"/><line transform="translate(424,-100)" x2="0" y2="100" stroke="#ddd" stroke-width="1" opacity="1"/><line transform="translate(455,-100)" x2="0" y2="100" stroke="#ddd" stroke-width="1" opacity="1"/><line transform="translate(485,-100)" x2="0" y2="100" stroke="#ddd" stroke-width="1" opacity="1"/></g></g><path class="foreground" aria-hidden="true" d="" pointer-events="none" display="none"/></g></g><g class="mark-group role-axis" aria-hidden="true"><g transform="translate(0.5,0.5)"><path class="background" aria-hidden="true" d="M0,0h0v0h0Z" pointer-events="none"/><g><g class="mark-rule role-axis-grid" pointer-events="none"><line transform="translate(0,100)" x2="500" y2="0" stroke="#ddd" stroke-width="1" opacity="1"/><line transform="translate(0,71)" x2="500" y2="0" stroke="#ddd" stroke-width="1" opacity="1"/><line transform="translate(0,43)" x2="500" y2="0" stroke="#ddd" stroke-width="1" opacity="1"/><line transform="translate(0,14)" x2="500" y2="0" stroke="#ddd" stroke-width="1" opacity="1"/></g></g><path class="foreground" aria-hidden="true" d="" pointer-events="none" display="none"/></g></g><g class="mark-group role-axis" role="graphics-symbol" aria-roledescription="axis" aria-label="Y-axis for a linear scale with values from 0 to 70,000"><g transform="translate(0.5,0.5)"><path class="background" aria-hidden="true" d="M0,0h0v0h0Z" pointer-events="none"/><g><g class="mark-rule role-axis-tick" pointer-events="none"><line transform="translate(0,100)" x2="-5" y2="0" stroke="#888" stroke-width="1" opacity="1"/><line transform="translate(0,71)" x2="-5" y2="0" stroke="#888" stroke-width="1" opacity="1"/><line transform="translate(0,43)" x2="-5" y2="0" stroke="#888" stroke-width="1" opacity="1"/><line transform="translate(0,14)" x2="-5" y2="0" stroke="#888" stroke-width="1" opacity="1"/></g><g class="mark-text role-axis-label" pointer-events="none"><text text-anchor="end" transform="translate(-7,104)" font-family="Agency FB" font-size="14px" fill="#000" opacity="1">0</text><text text-anchor="end" transform="translate(-7,75.42857142857143)" font-family="Agency FB" font-size="14px" fill="#000" opacity="1">20,000</text><text text-anchor="end" transform="translate(-7,46.85714285714286)" font-family="Agency FB" font-size="14px" fill="#000" opacity="1">40,000</text><text text-anchor="end" transform="translate(-7,18.285714285714292)" font-family="Agency FB" font-size="14px" fill="#000" opacity="1">60,000</text></g><g class="mark-rule role-axis-domain" pointer-events="none"><line transform="translate(0,100)" x2="0" y2="-100" stroke="#888" stroke-width="1" opacity="1"/></g></g><path class="foreground" aria-hidden="true" d="" pointer-events="none" display="none"/></g></g><g class="mark-group role-scope child_pathgroup" role="graphics-object" aria-roledescription="group mark container"><g transform="translate(0,0)"><path class="background" aria-hidden="true" d="M0,0h500v100h-500Z"/><g><g class="mark-line role-mark child_marks" role="graphics-object" aria-roledescription="line mark container"><path aria-label="Year: Jan 01, 1990; value: 31051.4903693; Population group: aiana; geoname_mostrecent: Blackfeet Indian Reservation and Off-Reservation Trust Land" role="graphics-symbol" aria-roledescription="line mark" d="M0,55.641L151.498,40.449M348.502,46.936L424.251,58.504M500,46.53Z" stroke="#4c78a8" stroke-width="2" opacity="0.5"/></g></g><path class="foreground" aria-hidden="true" d="" display="none"/></g><g transform="translate(0,0)"><path class="background" aria-hidden="true" d="M0,0h500v100h-500Z"/><g><g class="mark-line role-mark child_marks" role="graphics-object" aria-roledescription="line mark container"><path aria-label="Year: Jan 01, 1990; value: 34743.1546017; Population group: aiana; geoname_mostrecent: Flathead Reservation" role="graphics-symbol" aria-roledescription="line mark" d="M0,50.367L151.498,33.138M348.502,46.241L424.251,42.694M500,37.774Z" stroke="#4c78a8" stroke-width="2" opacity="0.5"/></g></g><path class="foreground" aria-hidden="true" d="" display="none"/></g><g transform="translate(0,0)"><path class="background" aria-hidden="true" d="M0,0h500v100h-500Z"/><g><g class="mark-line role-mark child_marks" role="graphics-object" aria-roledescription="line mark container"><path aria-label="Year: Jan 01, 1990; value: 32233.8490337; Population group: aiana; geoname_mostrecent: Fort Peck Indian Reservation and Off-Reservation Trust Land" role="graphics-symbol" aria-roledescription="line mark" d="M0,53.952L151.498,53.362M348.502,54.987L424.251,56.315M500,51.071Z" stroke="#4c78a8" stroke-width="2" opacity="0.5"/></g></g><path class="foreground" aria-hidden="true" d="" display="none"/></g><g transform="translate(0,0)"><path class="background" aria-hidden="true" d="M0,0h500v100h-500Z"/><g><g class="mark-line role-mark child_marks" role="graphics-object" aria-roledescription="line mark container"><path aria-label="Year: Jan 01, 1990; value: 32436.7389821; Population group: aiana; geoname_mostrecent: Montana (state)" role="graphics-symbol" aria-roledescription="line mark" d="M0,53.662L151.498,43.071M348.502,44.716L424.251,44.402M500,40.821Z" stroke="#4c78a8" stroke-width="2" opacity="0.5"/></g></g><path class="foreground" aria-hidden="true" d="" display="none"/></g><g transform="translate(0,0)"><path class="background" aria-hidden="true" d="M0,0h500v100h-500Z"/><g><g class="mark-line role-mark child_marks" role="graphics-object" aria-roledescription="line mark container"><path aria-label="Year: Jan 01, 1990; value: 31758.1070859; Population group: aiana; geoname_mostrecent: Northern Cheyenne Indian Reservation and Off-Reservation Trust Land" role="graphics-symbol" aria-roledescription="line mark" d="M0,54.631L151.498,45.227M348.502,42.421L424.251,28.491M500,45.033Z" stroke="#4c78a8" stroke-width="2" opacity="0.5"/></g></g><path class="foreground" aria-hidden="true" d="" display="none"/></g><g transform="translate(0,0)"><path class="background" aria-hidden="true" d="M0,0h500v100h-500Z"/><g><g class="mark-line role-mark child_marks" role="graphics-object" aria-roledescription="line mark container"><path aria-label="Year: Jan 01, 1990; value: 38840.5987308; Population group: aiana; geoname_mostrecent: Rocky Boy's Reservation and Off-Reservation Trust Land" role="graphics-symbol" aria-roledescription="line mark" d="M0,44.513L151.498,43.778M348.502,34.476L424.251,49.013M500,37.714Z" stroke="#4c78a8" stroke-width="2" opacity="0.5"/></g></g><path class="foreground" aria-hidden="true" d="" display="none"/></g><g transform="translate(0,0)"><path class="background" aria-hidden="true" d="M0,0h500v100h-500Z"/><g><g class="mark-line role-mark child_marks" role="graphics-object" aria-roledescription="line mark container"><path aria-label="Year: Jan 01, 1990; value: 34465.6384655; Population group: total; geoname_mostrecent: Blackfeet Indian Reservation and Off-Reservation Trust Land" role="graphics-symbol" aria-roledescription="line mark" d="M0,50.763L151.498,37.696M348.502,43.419L424.251,54.47M500,43.453Z" stroke="#f58518" stroke-width="2" opacity="0.5"/></g></g><path class="foreground" aria-hidden="true" d="" display="none"/></g><g transform="translate(0,0)"><path class="background" aria-hidden="true" d="M0,0h500v100h-500Z"/><g><g class="mark-line role-mark child_marks" role="graphics-object" aria-roledescription="line mark container"><path aria-label="Year: Jan 01, 1990; value: 42828.4356464; Population group: total; geoname_mostrecent: Flathead Reservation" role="graphics-symbol" aria-roledescription="line mark" d="M0,38.817L151.498,30.674M348.502,33.674L424.251,26.924M500,16.009Z" stroke="#f58518" stroke-width="2" opacity="0.5"/></g></g><path class="foreground" aria-hidden="true" d="" display="none"/></g><g transform="translate(0,0)"><path class="background" aria-hidden="true" d="M0,0h500v100h-500Z"/><g><g class="mark-line role-mark child_marks" role="graphics-object" aria-roledescription="line mark container"><path aria-label="Year: Jan 01, 1990; value: 43008.004911; Population group: total; geoname_mostrecent: Fort Peck Indian Reservation and Off-Reservation Trust Land" role="graphics-symbol" aria-roledescription="line mark" d="M0,38.56L151.498,39.569M348.502,37.036L424.251,36.23M500,34.349Z" stroke="#f58518" stroke-width="2" opacity="0.5"/></g></g><path class="foreground" aria-hidden="true" d="" display="none"/></g><g transform="translate(0,0)"><path class="background" aria-hidden="true" d="M0,0h500v100h-500Z"/><g><g class="mark-line role-mark child_marks" role="graphics-object" aria-roledescription="line mark container"><path aria-label="Year: Jan 01, 1990; value: 53609.5877288; Population group: total; geoname_mostrecent: Montana (state)" role="graphics-symbol" aria-roledescription="line mark" d="M0,23.415L151.498,16.517M348.502,13.615L424.251,8.887M500,0.111Z" stroke="#f58518" stroke-width="2" opacity="0.5"/></g></g><path class="foreground" aria-hidden="true" d="" display="none"/></g><g transform="translate(0,0)"><path class="background" aria-hidden="true" d="M0,0h500v100h-500Z"/><g><g class="mark-line role-mark child_marks" role="graphics-object" aria-roledescription="line mark container"><path aria-label="Year: Jan 01, 1990; value: 33621.4297149; Population group: total; geoname_mostrecent: Northern Cheyenne Indian Reservation and Off-Reservation Trust Land" role="graphics-symbol" aria-roledescription="line mark" d="M0,51.969L151.498,40.141M348.502,34.689L424.251,19.737M500,40.857Z" stroke="#f58518" stroke-width="2" opacity="0.5"/></g></g><path class="foreground" aria-hidden="true" d="" display="none"/></g><g transform="translate(0,0)"><path class="background" aria-hidden="true" d="M0,0h500v100h-500Z"/><g><g class="mark-line role-mark child_marks" role="graphics-object" aria-roledescription="line mark container"><path aria-label="Year: Jan 01, 1990; value: 39393.2989349; Population group: total; geoname_mostrecent: Rocky Boy's Reservation and Off-Reservation Trust Land" role="graphics-symbol" aria-roledescription="line mark" d="M0,43.724L151.498,43.187M348.502,33.738L424.251,49.906M500,39.217Z" stroke="#f58518" stroke-width="2" opacity="0.5"/></g></g><path class="foreground" aria-hidden="true" d="" display="none"/></g></g></g><path class="foreground" aria-hidden="true" d="" display="none"/></g></g><g class="mark-group role-legend" role="graphics-symbol" aria-roledescription="legend" aria-label="Symbol legend titled 'Population group' for stroke color with 2 values: aiana, total"><g transform="translate(521,0)"><path class="background" aria-hidden="true" d="M0,0h87v54h-87Z" pointer-events="none"/><g><g class="mark-group role-legend-entry"><g transform="translate(21,20)"><path class="background" aria-hidden="true" d="M0,0h0v0h0Z" pointer-events="none"/><g><g class="mark-group role-scope" role="graphics-object" aria-roledescription="group mark container"><g transform="translate(0,0)"><path class="background" aria-hidden="true" d="M0,0h44.21728515625v15.5h-44.21728515625Z" pointer-events="none" opacity="1"/><g><g class="mark-symbol role-legend-symbol" pointer-events="none"><path transform="translate(7.5,7.5)" d="M-5,0L5,0" stroke="#4c78a8" stroke-width="1.5" opacity="0.5"/></g><g class="mark-text role-legend-label" pointer-events="none"><text text-anchor="start" transform="translate(19,12.5)" font-family="Agency FB" font-size="15px" fill="#000" opacity="1">aiana</text></g></g><path class="foreground" aria-hidden="true" d="" pointer-events="none" display="none"/></g><g transform="translate(0,18)"><path class="background" aria-hidden="true" d="M0,0h44.21728515625v15.5h-44.21728515625Z" pointer-events="none" opacity="1"/><g><g class="mark-symbol role-legend-symbol" pointer-events="none"><path transform="translate(7.5,7.5)" d="M-5,0L5,0" stroke="#f58518" stroke-width="1.5" opacity="0.5"/></g><g class="mark-text role-legend-label" pointer-events="none"><text text-anchor="start" transform="translate(19,12.5)" font-family="Agency FB" font-size="15px" fill="#000" opacity="1">total</text></g></g><path class="foreground" aria-hidden="true" d="" pointer-events="none" display="none"/></g></g></g><path class="foreground" aria-hidden="true" d="" pointer-events="none" display="none"/></g></g><g class="mark-text role-legend-title" pointer-events="none"><text text-anchor="middle" transform="translate(43,12)" font-family="Agency FB" font-size="15px" font-weight="bold" fill="#000" opacity="1">Population group</text></g></g><path class="foreground" aria-hidden="true" d="" pointer-events="none" display="none"/></g></g><g class="mark-group role-title"><g transform="translate(-288,-71.273275743864)"><path class="background" aria-hidden="true" d="M0,0h0v0h0Z" pointer-events="none"/><g><g class="mark-text role-title-text" role="graphics-symbol" aria-roledescription="title" aria-label="Title text 'AIANa populations consistently behind in socioeconomic measures on MT reservations'" pointer-events="none"><text text-anchor="start" transform="translate(25,17)" font-family="Agency FB" font-size="22px" font-weight="bold" fill="#000" opacity="1"><tspan>AIANa populations consistently behind</tspan><tspan x="0" dy="24">in socioeconomic measures on MT reservations</tspan></text></g><g class="mark-text role-title-subtitle" role="graphics-symbol" aria-roledescription="subtitle" aria-label="Subtitle text 'Across Montana reservations, native-identifying peoples' outcomes lag. Each line represents a reservation.'" pointer-events="none"><text text-anchor="start" transform="translate(25,61)" font-family="Agency FB" font-size="15px" fill="#000" opacity="1">Across Montana reservations, native-identifying peoples' outcomes lag. Each line represents a reservation.</text></g></g><path class="foreground" aria-hidden="true" d="" pointer-events="none" display="none"/></g></g></g><path class="foreground" aria-hidden="true" d="" display="none"/></g></g></g></svg>