<svg xmlns="http://www.w3.org/2000/svg" xmlns:xlink="http://www.w3.org/1999/xlink" version="1.1" class="marks" width="747" height="293" viewBox="0 0 747 293"><rect width="747" height="293" fill="white"/><g fill="none" stroke-miterlimit="10" transform="translate(38,47)"><g class="mark-group role-frame root" role="graphics-object" aria-roledescription="group mark container"><g transform="translate(0,0)"><path class="background" aria-hidden="true" d="M0.5,0.5h500v200h-500Z" stroke="#ddd"/><g><g class="mark-group role-axis" aria-hidden="true"><g transform="translate(0.5,200.5)"><path class="background" aria-hidden="true" d="M0,0h0v0h0Z" pointer-events="none"/><g><g class="mark-rule role-axis-grid" pointer-events="none"><line transform="translate(0,0)" x2="0" y2="-200" stroke="#ddd" stroke-width="1" opacity="1"/><line transform="translate(30,0)" x2="0" y2="-200" stroke="#ddd" stroke-width="1" opacity="1"/><line transform="translate(61,0)" x2="0" y2="-200" stroke="#ddd" stroke-width="1" opacity="1"/><line transform="translate(91,0)" x2="0" y2="-200" stroke="#ddd" stroke-width="1" opacity="1"/><line transform="translate(121,0)" x2="0" y2="-200" stroke="#ddd" stroke-width="1" opacity="1"/><line transform="translate(151,0)" x2="0" y2="-200" stroke="#ddd" stroke-width="1" opacity="1"/><line transform="translate(182,0)" x2="0" y2="-200" stroke="#ddd" stroke-width="1" opacity="1"/><line transform="translate(212,0)" x2="0" y2="-200" stroke="#ddd" stroke-width="1" opacity="1"/><line transform="translate(242,0)" x2="0" y2="-200" stroke="#ddd" stroke-width="1" opacity="1"/><line transform="translate(273,0)" x2="0" y2="-200" stroke="#ddd" stroke-width="1" opacity="1"/><line transform="translate(303,0)" x2="0" y2="-200" stroke="#ddd" stroke-width="1" opacity="1"/><line transform="translate(333,0)" x2="0" y2="-200" stroke="#ddd" stroke-width="1" opacity="1"/><line transform="translate(364,0)" x2="0" y2="-200" stroke="#ddd" stroke-width="1" opacity="1"/><line transform="translate(394,0)" x2="0" y2="-200" stroke="#ddd" stroke-width="1" opacity="1"/><line transform="translate(424,0)" x2="0" y2="-200" stroke="#ddd" stroke-width="1" opacity="1"/><line transform="translate(455,0)" x2="0" y2="-200" stroke="#ddd" stroke-width="1" opacity="1"/><line transform="translate(485,0)" x2="0" y2="-200" stroke="#ddd" stroke-width="1" opacity="1"/></g></g><path class="foreground" aria-hidden="true" d="" pointer-events="none" display="none"/></g></g><g class="mark-group role-axis" role="graphics-symbol" aria-roledescription="axis" aria-label="X-axis titled 'Year' for a time scale with values from Monday, 01 January 1990, 12:00:00 AM to Sunday, 01 January 2023, 12:00:00 AM"><g transform="translate(0.5,200.5)"><path class="background" aria-hidden="true" d="M0,0h0v0h0Z" pointer-events="none"/><g><g class="mark-rule role-axis-tick" pointer-events="none"><line transform="translate(0,0)" x2="0" y2="5" stroke="#888" stroke-width="1" opacity="1"/><line transform="translate(30,0)" x2="0" y2="5" stroke="#888" stroke-width="1" opacity="1"/><line transform="translate(61,0)" x2="0" y2="5" stroke="#888" stroke-width="1" opacity="1"/><line transform="translate(91,0)" x2="0" y2="5" stroke="#888" stroke-width="1" opacity="1"/><line transform="translate(121,0)" x2="0" y2="5" stroke="#888" stroke-width="1" opacity="1"/><line transform="translate(151,0)" x2="0" y2="5" stroke="#888" stroke-width="1" opacity="1"/><line transform="translate(182,0)" x2="0" y2="5" stroke="#888" stroke-width="1" opacity="1"/><line transform="translate(212,0)" x2="0" y2="5" stroke="#888" stroke-width="1" opacity="1"/><line transform="translate(242,0)" x2="0" y2="5" stroke="#888" stroke-width="1" opacity="1"/><line transform="translate(273,0)" x2="0" y2="5" stroke="#888" stroke-width="1" opacity="1"/><line transform="translate(303,0)" x2="0" y2="5" stroke="#888" stroke-width="1" opacity="1"/><line transform="translate(333,0)" x2="0" y2="5" stroke="#888" stroke-width="1" opacity="1"/><line transform="translate(364,0)" x2="0" y2="5" stroke="#888" stroke-width="1" opacity="1"/><line transform="translate(394,0)" x2="0" y2="5" stroke="#888" stroke-width="1" opacity="1"/><line transform="translate(424,0)" x2="0" y2="5" stroke="#888" stroke-width="1" opacity="1"/><line transform="translate(455,0)" x2="0" y2="5" stroke="#888" stroke-width="1" opacity="1"/><line transform="translate(485,0)" x2="0" y2="5" stroke="#888" stroke-width="1" opacity="1"/></g><g class="mark-text role-axis-label" pointer-events="none"><text text-anchor="start" transform="translate(0,18)" font-family="Agency FB" font-size="14px" fill="#000" opacity="1">1990</text><text text-anchor="middle" transform="translate(30.28291711607069,18)" font-family="Agency FB" font-size="14px" fill="#000" opacity="0">1992</text><text text-anchor="middle" transform="translate(60.607317680245586,18)" font-family="Agency FB" font-size="14px" fill="#000" opacity="1">1994</text><text text-anchor="middle" transform="translate(90.89023479631626,18)" font-family="Agency FB" font-size="14px" fill="#000" opacity="0">1996</text><text text-anchor="middle" transform="translate(121.21463536049117,18)" font-family="Agency FB" font-size="14px" fill="#000" opacity="1">1998</text><text text-anchor="middle" transform="translate(151.49755247656185,18)" font-family="Agency FB" font-size="14px" fill="#000" opacity="0">2000</text><text text-anchor="middle" transform="translate(181.82195304073676,18)" font-family="Agency FB" font-size="14px" fill="#000" opacity="1">2002</text><text text-anchor="middle" transform="translate(212.10487015680744,18)" font-family="Agency FB" font-size="14px" fill="#000" opacity="0">2004</text><text text-anchor="middle" transform="translate(242.42927072098234,18)" font-family="Agency FB" font-size="14px" fill="#000" opacity="1">2006</text><text text-anchor="middle" transform="translate(272.712187837053,18)" font-family="Agency FB" font-size="14px" fill="#000" opacity="0">2008</text><text text-anchor="middle" transform="translate(303.03658840122796,18)" font-family="Agency FB" font-size="14px" fill="#000" opacity="1">2010</text><text text-anchor="middle" transform="translate(333.3195055172986,18)" font-family="Agency FB" font-size="14px" fill="#000" opacity="0">2012</text><text text-anchor="middle" transform="translate(363.6439060814735,18)" font-family="Agency FB" font-size="14px" fill="#000" opacity="1">2014</text><text text-anchor="middle" transform="translate(393.9268231975442,18)" font-family="Agency FB" font-size="14px" fill="#000" opacity="0">2016</text><text text-anchor="middle" transform="translate(424.2512237617191,18)" font-family="Agency FB" font-size="14px" fill="#000" opacity="1">2018</text><text text-anchor="middle" transform="translate(454.53414087778975,18)" font-family="Agency FB" font-size="14px" fill="#000" opacity="0">2020</text><text text-anchor="middle" transform="translate(484.8585414419647,18)" font-family="Agency FB" font-size="14px" fill="#000" opacity="1">2022</text></g><g class="mark-rule role-axis-domain" pointer-events="none"><line transform="translate(0,0)" x2="500" y2="0" stroke="#888" stroke-width="1" opacity="1"/></g><g class="mark-text role-axis-title" pointer-events="none"><text text-anchor="middle" transform="translate(250,38)" font-family="Agency FB" font-size="16px" font-weight="bold" fill="#000" opacity="1">Year</text></g></g><path class="foreground" aria-hidden="true" d="" pointer-events="none" display="none"/></g></g><g class="mark-group role-axis" role="graphics-symbol" aria-roledescription="axis" aria-label="Y-axis titled 'Rank' for a discrete scale with 6 values: 1, 2, 3, 4, 5, 6"><g transform="translate(0.5,0.5)"><path class="background" aria-hidden="true" d="M0,0h0v0h0Z" pointer-events="none"/><g><g class="mark-rule role-axis-tick" pointer-events="none"><line transform="translate(0,17)" x2="-5" y2="0" stroke="#888" stroke-width="1" opacity="1"/><line transform="translate(0,50)" x2="-5" y2="0" stroke="#888" stroke-width="1" opacity="1"/><line transform="translate(0,83)" x2="-5" y2="0" stroke="#888" stroke-width="1" opacity="1"/><line transform="translate(0,117)" x2="-5" y2="0" stroke="#888" stroke-width="1" opacity="1"/><line transform="translate(0,150)" x2="-5" y2="0" stroke="#888" stroke-width="1" opacity="1"/><line transform="translate(0,183)" x2="-5" y2="0" stroke="#888" stroke-width="1" opacity="1"/></g><g class="mark-text role-axis-label" pointer-events="none"><text text-anchor="end" transform="translate(-7,20.666666666666657)" font-family="Agency FB" font-size="14px" fill="#000" opacity="1">1</text><text text-anchor="end" transform="translate(-7,53.99999999999999)" font-family="Agency FB" font-size="14px" fill="#000" opacity="1">2</text><text text-anchor="end" transform="translate(-7,87.33333333333333)" font-family="Agency FB" font-size="14px" fill="#000" opacity="1">3</text><text text-anchor="end" transform="translate(-7,120.66666666666666)" font-family="Agency FB" font-size="14px" fill="#000" opacity="1">4</text><text text-anchor="end" transform="translate(-7,154)" font-family="Agency FB" font-size="14px" fill="#000" opacity="1">5</text><text text-anchor="end" transform="translate(-7,187.33333333333334)" font-family="Agency FB" font-size="14px" fill="#000" opacity="1">6</text></g><g class="mark-rule role-axis-domain" pointer-events="none"><line transform="translate(0,0)" x2="0" y2="200" stroke="#888" stroke-width="1" opacity="1"/></g><g class="mark-text role-axis-title" pointer-events="none"><text text-anchor="middle" transform="translate(-16.93359375,100) rotate(-90) translate(0,-3)" font-family="Agency FB" font-size="16px" font-weight="bold" fill="#000" opacity="1">Rank</text></g></g><path class="foreground" aria-hidden="true" d="" pointer-events="none" display="none"/></g></g><g class="mark-group role-scope layer_0_pathgroup" role="graphics-object" aria-roledescription="group mark container"><g transform="translate(0,0)"><path class="background" aria-hidden="true" d="M0,0h500v200h-500Z"/><g><g class="mark-line role-mark layer_0_marks" role="graphics-object" aria-roledescription="line mark container"><path aria-label="Year: Jan 01, 1990; Rank: 3; Reservation/State: Blackfeet Indian Reservation and Off-Reservation Trust Land; geoname_mostrecent: Blackfeet Indian Reservation and Off-Reservation Trust Land" role="graphics-symbol" aria-roledescription="line mark" d="M0,83.333L151.498,50L303.037,50L348.502,83.333L424.251,50L454.534,83.333L500,50" stroke="#4c78a8" stroke-width="2"/></g></g><path class="foreground" aria-hidden="true" d="" display="none"/></g><g transform="translate(0,0)"><path class="background" aria-hidden="true" d="M0,0h500v200h-500Z"/><g><g class="mark-line role-mark layer_0_marks" role="graphics-object" aria-roledescription="line mark container"><path aria-label="Year: Jan 01, 1990; Rank: 2; Reservation/State: Flathead Reservation; geoname_mostrecent: Flathead Reservation" role="graphics-symbol" aria-roledescription="line mark" d="M0,50L151.498,16.667L303.037,16.667L348.502,16.667L424.251,16.667L454.534,16.667L500,83.333" stroke="#f58518" stroke-width="2"/></g></g><path class="foreground" aria-hidden="true" d="" display="none"/></g><g transform="translate(0,0)"><path class="background" aria-hidden="true" d="M0,0h500v200h-500Z"/><g><g class="mark-line role-mark layer_0_marks" role="graphics-object" aria-roledescription="line mark container"><path aria-label="Year: Jan 01, 1990; Rank: 5; Reservation/State: Fort Peck Indian Reservation and Off-Reservation Trust Land; geoname_mostrecent: Fort Peck Indian Reservation and Off-Reservation Trust Land" role="graphics-symbol" aria-roledescription="line mark" d="M0,150L151.498,83.333L303.037,116.667L348.502,183.333L424.251,150L454.534,116.667L500,16.667" stroke="#e45756" stroke-width="2"/></g></g><path class="foreground" aria-hidden="true" d="" display="none"/></g><g transform="translate(0,0)"><path class="background" aria-hidden="true" d="M0,0h500v200h-500Z"/><g><g class="mark-line role-mark layer_0_marks" role="graphics-object" aria-roledescription="line mark container"><path aria-label="Year: Jan 01, 1990; Rank: 6; Reservation/State: Montana (state); geoname_mostrecent: Montana (state)" role="graphics-symbol" aria-roledescription="line mark" d="M0,183.333L151.498,150L303.037,150L348.502,116.667L424.251,116.667L454.534,150L500,150" stroke="#72b7b2" stroke-width="2"/></g></g><path class="foreground" aria-hidden="true" d="" display="none"/></g><g transform="translate(0,0)"><path class="background" aria-hidden="true" d="M0,0h500v200h-500Z"/><g><g class="mark-line role-mark layer_0_marks" role="graphics-object" aria-roledescription="line mark container"><path aria-label="Year: Jan 01, 1990; Rank: 1; Reservation/State: Northern Cheyenne Indian Reservation and Off-Reservation Trust Land; geoname_mostrecent: Northern Cheyenne Indian Reservation and Off-Reservation Trust Land" role="graphics-symbol" aria-roledescription="line mark" d="M0,16.667L151.498,116.667L303.037,83.333L348.502,50L424.251,83.333L454.534,50L500,116.667" stroke="#54a24b" stroke-width="2"/></g></g><path class="foreground" aria-hidden="true" d="" display="none"/></g><g transform="translate(0,0)"><path class="background" aria-hidden="true" d="M0,0h500v200h-500Z"/><g><g class="mark-line role-mark layer_0_marks" role="graphics-object" aria-roledescription="line mark container"><path aria-label="Year: Jan 01, 1990; Rank: 4; Reservation/State: Rocky Boy's Reservation and Off-Reservation Trust Land; geoname_mostrecent: Rocky Boy's Reservation and Off-Reservation Trust Land" role="graphics-symbol" aria-roledescription="line mark" d="M0,116.667L151.498,183.333L303.037,183.333L348.502,150L424.251,183.333L454.534,183.333L500,183.333" stroke="#eeca3b" stroke-width="2"/></g></g><path class="foreground" aria-hidden="true" d="" display="none"/></g></g><g class="mark-symbol role-mark layer_1_marks" role="graphics-object" aria-roledescription="symbol mark container"><path aria-label="Year: Jan 01, 1990; Rank: 3; Reservation/State: Blackfeet Indian Reservation and Off-Reservation Trust Land; geoname_mostrecent: Blackfeet Indian Reservation and Off-Reservation Trust Land" role="graphics-symbol" aria-roledescription="point" transform="translate(0,83.33333333333333)" d="M2.739,0A2.739,2.739,0,1,1,-2.739,0A2.739,2.739,0,1,1,2.739,0" fill="#4c78a8" stroke-width="2" opacity="1"/><path aria-label="Year: Jan 01, 2000; Rank: 2; Reservation/State: Blackfeet Indian Reservation and Off-Reservation Trust Land; geoname_mostrecent: Blackfeet Indian Reservation and Off-Reservation Trust Land" role="graphics-symbol" aria-roledescription="point" transform="translate(151.49755247656185,49.99999999999999)" d="M2.739,0A2.739,2.739,0,1,1,-2.739,0A2.739,2.739,0,1,1,2.739,0" fill="#4c78a8" stroke-width="2" opacity="1"/><path aria-label="Year: Jan 01, 2010; Rank: 2; Reservation/State: Blackfeet Indian Reservation and Off-Reservation Trust Land; geoname_mostrecent: Blackfeet Indian Reservation and Off-Reservation Trust Land" role="graphics-symbol" aria-roledescription="point" transform="translate(303.03658840122796,49.99999999999999)" d="M2.739,0A2.739,2.739,0,1,1,-2.739,0A2.739,2.739,0,1,1,2.739,0" fill="#4c78a8" stroke-width="2" opacity="1"/><path aria-label="Year: Jan 01, 2013; Rank: 3; Reservation/State: Blackfeet Indian Reservation and Off-Reservation Trust Land; geoname_mostrecent: Blackfeet Indian Reservation and Off-Reservation Trust Land" role="graphics-symbol" aria-roledescription="point" transform="translate(348.50244752343815,83.33333333333333)" d="M2.739,0A2.739,2.739,0,1,1,-2.739,0A2.739,2.739,0,1,1,2.739,0" fill="#4c78a8" stroke-width="2" opacity="1"/><path aria-label="Year: Jan 01, 2018; Rank: 2; Reservation/State: Blackfeet Indian Reservation and Off-Reservation Trust Land; geoname_mostrecent: Blackfeet Indian Reservation and Off-Reservation Trust Land" role="graphics-symbol" aria-roledescription="point" transform="translate(424.2512237617191,49.99999999999999)" d="M2.739,0A2.739,2.739,0,1,1,-2.739,0A2.739,2.739,0,1,1,2.739,0" fill="#4c78a8" stroke-width="2" opacity="1"/><path aria-label="Year: Jan 01, 2020; Rank: 3; Reservation/State: Blackfeet Indian Reservation and Off-Reservation Trust Land; geoname_mostrecent: Blackfeet Indian Reservation and Off-Reservation Trust Land" role="graphics-symbol" aria-roledescription="point" transform="translate(454.53414087778975,83.33333333333333)" d="M2.739,0A2.739,2.739,0,1,1,-2.739,0A2.739,2.739,0,1,1,2.739,0" fill="#4c78a8" stroke-width="2" opacity="1"/><path aria-label="Year: Jan 01, 2023; Rank: 2; Reservation/State: Blackfeet Indian Reservation and Off-Reservation Trust Land; geoname_mostrecent: Blackfeet Indian Reservation and Off-Reservation Trust Land" role="graphics-symbol" aria-roledescription="point" transform="translate(500,49.99999999999999)" d="M2.739,0A2.739,2.739,0,1,1,-2.739,0A2.739,2.739,0,1,1,2.739,0" fill="#4c78a8" stroke-width="2" opacity="1"/><path aria-label="Year: Jan 01, 1990; Rank: 2; Reservation/State: Flathead Reservation; geoname_mostrecent: Flathead Reservation" role="graphics-symbol" aria-roledescription="point" transform="translate(0,49.99999999999999)" d="M2.739,0A2.739,2.739,0,1,1,-2.739,0A2.739,2.739,0,1,1,2.739,0" fill="#f58518" stroke-width="2" opacity="1"/><path aria-label="Year: Jan 01, 2000; Rank: 1; Reservation/State: Flathead Reservation; geoname_mostrecent: Flathead Reservation" role="graphics-symbol" aria-roledescription="point" transform="translate(151.49755247656185,16.666666666666657)" d="M2.739,0A2.739,2.739,0,1,1,-2.739,0A2.739,2.739,0,1,1,2.739,0" fill="#f58518" stroke-width="2" opacity="1"/><path aria-label="Year: Jan 01, 2010; Rank: 1; Reservation/State: Flathead Reservation; geoname_mostrecent: Flathead Reservation" role="graphics-symbol" aria-roledescription="point" transform="translate(303.03658840122796,16.666666666666657)" d="M2.739,0A2.739,2.739,0,1,1,-2.739,0A2.739,2.739,0,1,1,2.739,0" fill="#f58518" stroke-width="2" opacity="1"/><path aria-label="Year: Jan 01, 2013; Rank: 1; Reservation/State: Flathead Reservation; geoname_mostrecent: Flathead Reservation" role="graphics-symbol" aria-roledescription="point" transform="translate(348.50244752343815,16.666666666666657)" d="M2.739,0A2.739,2.739,0,1,1,-2.739,0A2.739,2.739,0,1,1,2.739,0" fill="#f58518" stroke-width="2" opacity="1"/><path aria-label="Year: Jan 01, 2018; Rank: 1; Reservation/State: Flathead Reservation; geoname_mostrecent: Flathead Reservation" role="graphics-symbol" aria-roledescription="point" transform="translate(424.2512237617191,16.666666666666657)" d="M2.739,0A2.739,2.739,0,1,1,-2.739,0A2.739,2.739,0,1,1,2.739,0" fill="#f58518" stroke-width="2" opacity="1"/><path aria-label="Year: Jan 01, 2020; Rank: 1; Reservation/State: Flathead Reservation; geoname_mostrecent: Flathead Reservation" role="graphics-symbol" aria-roledescription="point" transform="translate(454.53414087778975,16.666666666666657)" d="M2.739,0A2.739,2.739,0,1,1,-2.739,0A2.739,2.739,0,1,1,2.739,0" fill="#f58518" stroke-width="2" opacity="1"/><path aria-label="Year: Jan 01, 2023; Rank: 3; Reservation/State: Flathead Reservation; geoname_mostrecent: Flathead Reservation" role="graphics-symbol" aria-roledescription="point" transform="translate(500,83.33333333333333)" d="M2.739,0A2.739,2.739,0,1,1,-2.739,0A2.739,2.739,0,1,1,2.739,0" fill="#f58518" stroke-width="2" opacity="1"/><path aria-label="Year: Jan 01, 1990; Rank: 5; Reservation/State: Fort Peck Indian Reservation and Off-Reservation Trust Land; geoname_mostrecent: Fort Peck Indian Reservation and Off-Reservation Trust Land" role="graphics-symbol" aria-roledescription="point" transform="translate(0,150)" d="M2.739,0A2.739,2.739,0,1,1,-2.739,0A2.739,2.739,0,1,1,2.739,0" fill="#e45756" stroke-width="2" opacity="1"/><path aria-label="Year: Jan 01, 2000; Rank: 3; Reservation/State: Fort Peck Indian Reservation and Off-Reservation Trust Land; geoname_mostrecent: Fort Peck Indian Reservation and Off-Reservation Trust Land" role="graphics-symbol" aria-roledescription="point" transform="translate(151.49755247656185,83.33333333333333)" d="M2.739,0A2.739,2.739,0,1,1,-2.739,0A2.739,2.739,0,1,1,2.739,0" fill="#e45756" stroke-width="2" opacity="1"/><path aria-label="Year: Jan 01, 2010; Rank: 4; Reservation/State: Fort Peck Indian Reservation and Off-Reservation Trust Land; geoname_mostrecent: Fort Peck Indian Reservation and Off-Reservation Trust Land" role="graphics-symbol" aria-roledescription="point" transform="translate(303.03658840122796,116.66666666666666)" d="M2.739,0A2.739,2.739,0,1,1,-2.739,0A2.739,2.739,0,1,1,2.739,0" fill="#e45756" stroke-width="2" opacity="1"/><path aria-label="Year: Jan 01, 2013; Rank: 6; Reservation/State: Fort Peck Indian Reservation and Off-Reservation Trust Land; geoname_mostrecent: Fort Peck Indian Reservation and Off-Reservation Trust Land" role="graphics-symbol" aria-roledescription="point" transform="translate(348.50244752343815,183.33333333333334)" d="M2.739,0A2.739,2.739,0,1,1,-2.739,0A2.739,2.739,0,1,1,2.739,0" fill="#e45756" stroke-width="2" opacity="1"/><path aria-label="Year: Jan 01, 2018; Rank: 5; Reservation/State: Fort Peck Indian Reservation and Off-Reservation Trust Land; geoname_mostrecent: Fort Peck Indian Reservation and Off-Reservation Trust Land" role="graphics-symbol" aria-roledescription="point" transform="translate(424.2512237617191,150)" d="M2.739,0A2.739,2.739,0,1,1,-2.739,0A2.739,2.739,0,1,1,2.739,0" fill="#e45756" stroke-width="2" opacity="1"/><path aria-label="Year: Jan 01, 2020; Rank: 4; Reservation/State: Fort Peck Indian Reservation and Off-Reservation Trust Land; geoname_mostrecent: Fort Peck Indian Reservation and Off-Reservation Trust Land" role="graphics-symbol" aria-roledescription="point" transform="translate(454.53414087778975,116.66666666666666)" d="M2.739,0A2.739,2.739,0,1,1,-2.739,0A2.739,2.739,0,1,1,2.739,0" fill="#e45756" stroke-width="2" opacity="1"/><path aria-label="Year: Jan 01, 2023; Rank: 1; Reservation/State: Fort Peck Indian Reservation and Off-Reservation Trust Land; geoname_mostrecent: Fort Peck Indian Reservation and Off-Reservation Trust Land" role="graphics-symbol" aria-roledescription="point" transform="translate(500,16.666666666666657)" d="M2.739,0A2.739,2.739,0,1,1,-2.739,0A2.739,2.739,0,1,1,2.739,0" fill="#e45756" stroke-width="2" opacity="1"/><path aria-label="Year: Jan 01, 1990; Rank: 6; Reservation/State: Montana (state); geoname_mostrecent: Montana (state)" role="graphics-symbol" aria-roledescription="point" transform="translate(0,183.33333333333334)" d="M2.739,0A2.739,2.739,0,1,1,-2.739,0A2.739,2.739,0,1,1,2.739,0" fill="#72b7b2" stroke-width="2" opacity="1"/><path aria-label="Year: Jan 01, 2000; Rank: 5; Reservation/State: Montana (state); geoname_mostrecent: Montana (state)" role="graphics-symbol" aria-roledescription="point" transform="translate(151.49755247656185,150)" d="M2.739,0A2.739,2.739,0,1,1,-2.739,0A2.739,2.739,0,1,1,2.739,0" fill="#72b7b2" stroke-width="2" opacity="1"/><path aria-label="Year: Jan 01, 2010; Rank: 5; Reservation/State: Montana (state); geoname_mostrecent: Montana (state)" role="graphics-symbol" aria-roledescription="point" transform="translate(303.03658840122796,150)" d="M2.739,0A2.739,2.739,0,1,1,-2.739,0A2.739,2.739,0,1,1,2.739,0" fill="#72b7b2" stroke-width="2" opacity="1"/><path aria-label="Year: Jan 01, 2013; Rank: 4; Reservation/State: Montana (state); geoname_mostrecent: Montana (state)" role="graphics-symbol" aria-roledescription="point" transform="translate(348.50244752343815,116.66666666666666)" d="M2.739,0A2.739,2.739,0,1,1,-2.739,0A2.739,2.739,0,1,1,2.739,0" fill="#72b7b2" stroke-width="2" opacity="1"/><path aria-label="Year: Jan 01, 2018; Rank: 4; Reservation/State: Montana (state); geoname_mostrecent: Montana (state)" role="graphics-symbol" aria-roledescription="point" transform="translate(424.2512237617191,116.66666666666666)" d="M2.739,0A2.739,2.739,0,1,1,-2.739,0A2.739,2.739,0,1,1,2.739,0" fill="#72b7b2" stroke-width="2" opacity="1"/><path aria-label="Year: Jan 01, 2020; Rank: 5; Reservation/State: Montana (state); geoname_mostrecent: Montana (state)" role="graphics-symbol" aria-roledescription="point" transform="translate(454.53414087778975,150)" d="M2.739,0A2.739,2.739,0,1,1,-2.739,0A2.739,2.739,0,1,1,2.739,0" fill="#72b7b2" stroke-width="2" opacity="1"/><path aria-label="Year: Jan 01, 2023; Rank: 5; Reservation/State: Montana (state); geoname_mostrecent: Montana (state)" role="graphics-symbol" aria-roledescription="point" transform="translate(500,150)" d="M2.739,0A2.739,2.739,0,1,1,-2.739,0A2.739,2.739,0,1,1,2.739,0" fill="#72b7b2" stroke-width="2" opacity="1"/><path aria-label="Year: Jan 01, 1990; Rank: 1; Reservation/State: Northern Cheyenne Indian Reservation and Off-Reservation Trust Land; geoname_mostrecent: Northern Cheyenne Indian Reservation and Off-Reservation Trust Land" role="graphics-symbol" aria-roledescription="point" transform="translate(0,16.666666666666657)" d="M2.739,0A2.739,2.739,0,1,1,-2.739,0A2.739,2.739,0,1,1,2.739,0" fill="#54a24b" stroke-width="2" opacity="1"/><path aria-label="Year: Jan 01, 2000; Rank: 4; Reservation/State: Northern Cheyenne Indian Reservation and Off-Reservation Trust Land; geoname_mostrecent: Northern Cheyenne Indian Reservation and Off-Reservation Trust Land" role="graphics-symbol" aria-roledescription="point" transform="translate(151.49755247656185,116.66666666666666)" d="M2.739,0A2.739,2.739,0,1,1,-2.739,0A2.739,2.739,0,1,1,2.739,0" fill="#54a24b" stroke-width="2" opacity="1"/><path aria-label="Year: Jan 01, 2010; Rank: 3; Reservation/State: Northern Cheyenne Indian Reservation and Off-Reservation Trust Land; geoname_mostrecent: Northern Cheyenne Indian Reservation and Off-Reservation Trust Land" role="graphics-symbol" aria-roledescription="point" transform="translate(303.03658840122796,83.33333333333333)" d="M2.739,0A2.739,2.739,0,1,1,-2.739,0A2.739,2.739,0,1,1,2.739,0" fill="#54a24b" stroke-width="2" opacity="1"/><path aria-label="Year: Jan 01, 2013; Rank: 2; Reservation/State: Northern Cheyenne Indian Reservation and Off-Reservation Trust Land; geoname_mostrecent: Northern Cheyenne Indian Reservation and Off-Reservation Trust Land" role="graphics-symbol" aria-roledescription="point" transform="translate(348.50244752343815,49.99999999999999)" d="M2.739,0A2.739,2.739,0,1,1,-2.739,0A2.739,2.739,0,1,1,2.739,0" fill="#54a24b" stroke-width="2" opacity="1"/><path aria-label="Year: Jan 01, 2018; Rank: 3; Reservation/State: Northern Cheyenne Indian Reservation and Off-Reservation Trust Land; geoname_mostrecent: Northern Cheyenne Indian Reservation and Off-Reservation Trust Land" role="graphics-symbol" aria-roledescription="point" transform="translate(424.2512237617191,83.33333333333333)" d="M2.739,0A2.739,2.739,0,1,1,-2.739,0A2.739,2.739,0,1,1,2.739,0" fill="#54a24b" stroke-width="2" opacity="1"/><path aria-label="Year: Jan 01, 2020; Rank: 2; Reservation/State: Northern Cheyenne Indian Reservation and Off-Reservation Trust Land; geoname_mostrecent: Northern Cheyenne Indian Reservation and Off-Reservation Trust Land" role="graphics-symbol" aria-roledescription="point" transform="translate(454.53414087778975,49.99999999999999)" d="M2.739,0A2.739,2.739,0,1,1,-2.739,0A2.739,2.739,0,1,1,2.739,0" fill="#54a24b" stroke-width="2" opacity="1"/><path aria-label="Year: Jan 01, 2023; Rank: 4; Reservation/State: Northern Cheyenne Indian Reservation and Off-Reservation Trust Land; geoname_mostrecent: Northern Cheyenne Indian Reservation and Off-Reservation Trust Land" role="graphics-symbol" aria-roledescription="point" transform="translate(500,116.66666666666666)" d="M2.739,0A2.739,2.739,0,1,1,-2.739,0A2.739,2.739,0,1,1,2.739,0" fill="#54a24b" stroke-width="2" opacity="1"/><path aria-label="Year: Jan 01, 1990; Rank: 4; Reservation/State: Rocky Boy's Reservation and Off-Reservation Trust Land; geoname_mostrecent: Rocky Boy's Reservation and Off-Reservation Trust Land" role="graphics-symbol" aria-roledescription="point" transform="translate(0,116.66666666666666)" d="M2.739,0A2.739,2.739,0,1,1,-2.739,0A2.739,2.739,0,1,1,2.739,0" fill="#eeca3b" stroke-width="2" opacity="1"/><path aria-label="Year: Jan 01, 2000; Rank: 6; Reservation/State: Rocky Boy's Reservation and Off-Reservation Trust Land; geoname_mostrecent: Rocky Boy's Reservation and Off-Reservation Trust Land" role="graphics-symbol" aria-roledescription="point" transform="translate(151.49755247656185,183.33333333333334)" d="M2.739,0A2.739,2.739,0,1,1,-2.739,0A2.739,2.739,0,1,1,2.739,0" fill="#eeca3b" stroke-width="2" opacity="1"/><path aria-label="Year: Jan 01, 2010; Rank: 6; Reservation/State: Rocky Boy's Reservation and Off-Reservation Trust Land; geoname_mostrecent: Rocky Boy's Reservation and Off-Reservation Trust Land" role="graphics-symbol" aria-roledescription="point" transform="translate(303.03658840122796,183.33333333333334)" d="M2.739,0A2.739,2.739,0,1,1,-2.739,0A2.739,2.739,0,1,1,2.739,0" fill="#eeca3b" stroke-width="2" opacity="1"/><path aria-label="Year: Jan 01, 2013; Rank: 5; Reservation/State: Rocky Boy's Reservation and Off-Reservation Trust Land; geoname_mostrecent: Rocky Boy's Reservation and Off-Reservation Trust Land" role="graphics-symbol" aria-roledescription="point" transform="translate(348.50244752343815,150)" d="M2.739,0A2.739,2.739,0,1,1,-2.739,0A2.739,2.739,0,1,1,2.739,0" fill="#eeca3b" stroke-width="2" opacity="1"/><path aria-label="Year: Jan 01, 2018; Rank: 6; Reservation/State: Rocky Boy's Reservation and Off-Reservation Trust Land; geoname_mostrecent: Rocky Boy's Reservation and Off-Reservation Trust Land" role="graphics-symbol" aria-roledescription="point" transform="translate(424.2512237617191,183.33333333333334)" d="M2.739,0A2.739,2.739,0,1,1,-2.739,0A2.739,2.739,0,1,1,2.739,0" fill="#eeca3b" stroke-width="2" opacity="1"/><path aria-label="Year: Jan 01, 2020; Rank: 6; Reservation/State: Rocky Boy's Reservation and Off-Reservation Trust Land; geoname_mostrecent: Rocky Boy's Reservation and Off-Reservation Trust Land" role="graphics-symbol" aria-roledescription="point" transform="translate(454.53414087778975,183.33333333333334)" d="M2.739,0A2.739,2.739,0,1,1,-2.739,0A2.739,2.739,0,1,1,2.739,0" fill="#eeca3b" stroke-width="2" opacity="1"/><path aria-label="Year: Jan 01, 2023; Rank: 6; Reservation/State: Rocky Boy's Reservation and Off-Reservation Trust Land; geoname_mostrecent: Rocky Boy's Reservation and Off-Reservation Trust Land" role="graphics-symbol" aria-roledescription="point" transform="translate(500,183.33333333333334)" d="M2.739,0A2.739,2.739,0,1,1,-2.739,0A2.739,2.739,0,1,1,2.739,0" fill="#eeca3b" stroke-width="2" opacity="1"/></g><g class="mark-group role-legend" role="graphics-symbol" aria-roledescription="legend" aria-label="Symbol legend titled 'Reservation/State' for fill color and stroke color with 6 values: Blackfeet Indian Reservation and Off-Reservation Trust Land, Flathead Reservation, Fort Peck Indian Reservation and Off-Reservation Trust Land, Montana (state), Northern Cheyenne Indian Reservation and Off-Reservation Trust Land, Rocky Boy's Reservation and Off-Reservation Trust Land"><g transform="translate(520,0)"><path class="background" aria-hidden="true" d="M0,0h184v126h-184Z" pointer-events="none"/><g><g class="mark-group role-legend-entry"><g transform="translate(5,20)"><path class="background" aria-hidden="true" d="M0,0h0v0h0Z" pointer-events="none"/><g><g class="mark-group role-scope" role="graphics-object" aria-roledescription="group mark container"><g transform="translate(0,0)"><path class="background" aria-hidden="true" d="M0,0h179v15.5h-179Z" pointer-events="none" opacity="1"/><g><g class="mark-symbol role-legend-symbol" pointer-events="none"><path transform="translate(7.5,7.5)" d="M5,0A5,5,0,1,1,-5,0A5,5,0,1,1,5,0" fill="#4c78a8" stroke="#4c78a8" stroke-width="1.5" opacity="1"/></g><g class="mark-text role-legend-label" pointer-events="none"><text text-anchor="start" transform="translate(19,12.5)" font-family="Agency FB" font-size="15px" fill="#000" opacity="1">Blackfeet Indian Reservation an…</text></g></g><path class="foreground" aria-hidden="true" d="" pointer-events="none" display="none"/></g><g transform="translate(0,18)"><path class="background" aria-hidden="true" d="M0,0h179v15.5h-179Z" pointer-events="none" opacity="1"/><g><g class="mark-symbol role-legend-symbol" pointer-events="none"><path transform="translate(7.5,7.5)" d="M5,0A5,5,0,1,1,-5,0A5,5,0,1,1,5,0" fill="#f58518" stroke="#f58518" stroke-width="1.5" opacity="1"/></g><g class="mark-text role-legend-label" pointer-events="none"><text text-anchor="start" transform="translate(19,12.5)" font-family="Agency FB" font-size="15px" fill="#000" opacity="1">Flathead Reservation</text></g></g><path class="foreground" aria-hidden="true" d="" pointer-events="none" display="none"/></g><g transform="translate(0,36)"><path class="background" aria-hidden="true" d="M0,0h179v15.5h-179Z" pointer-events="none" opacity="1"/><g><g class="mark-symbol role-legend-symbol" pointer-events="none"><path transform="translate(7.5,7.5)" d="M5,0A5,5,0,1,1,-5,0A5,5,0,1,1,5,0" fill="#e45756" stroke="#e45756" stroke-width="1.5" opacity="1"/></g><g class="mark-text role-legend-label" pointer-events="none"><text text-anchor="start" transform="translate(19,12.5)" font-family="Agency FB" font-size="15px" fill="#000" opacity="1">Fort Peck Indian Reservation an…</text></g></g><path class="foreground" aria-hidden="true" d="" pointer-events="none" display="none"/></g><g transform="translate(0,54)"><path class="background" aria-hidden="true" d="M0,0h179v15.5h-179Z" pointer-events="none" opacity="1"/><g><g class="mark-symbol role-legend-symbol" pointer-events="none"><path transform="translate(7.5,7.5)" d="M5,0A5,5,0,1,1,-5,0A5,5,0,1,1,5,0" fill="#72b7b2" stroke="#72b7b2" stroke-width="1.5" opacity="1"/></g><g class="mark-text role-legend-label" pointer-events="none"><text text-anchor="start" transform="translate(19,12.5)" font-family="Agency FB" font-size="15px" fill="#000" opacity="1">Montana (state)</text></g></g><path class="foreground" aria-hidden="true" d="" pointer-events="none" display="none"/></g><g transform="translate(0,72)"><path class="background" aria-hidden="true" d="M0,0h179v15.5h-179Z" pointer-events="none" opacity="1"/><g><g class="mark-symbol role-legend-symbol" pointer-events="none"><path transform="translate(7.5,7.5)" d="M5,0A5,5,0,1,1,-5,0A5,5,0,1,1,5,0" fill="#54a24b" stroke="#54a24b" stroke-width="1.5" opacity="1"/></g><g class="mark-text role-legend-label" pointer-events="none"><text text-anchor="start" transform="translate(19,12.5)" font-family="Agency FB" font-size="15px" fill="#000" opacity="1">Northern Cheyenne Indian Rese…</text></g></g><path class="foreground" aria-hidden="true" d="" pointer-events="none" display="none"/></g><g transform="translate(0,90)"><path class="background" aria-hidden="true" d="M0,0h179v15.5h-179Z" pointer-events="none" opacity="1"/><g><g class="mark-symbol role-legend-symbol" pointer-events="none"><path transform="translate(7.5,7.5)" d="M5,0A5,5,0,1,1,-5,0A5,5,0,1,1,5,0" fill="#eeca3b" stroke="#eeca3b" stroke-width="1.5" opacity="1"/></g><g class="mark-text role-legend-label" pointer-events="none"><text text-anchor="start" transform="translate(19,12.5)" font-family="Agency FB" font-size="15px" fill="#000" opacity="1">Rocky Boy's Reservation and Off…</text></g></g><path class="foreground" aria-hidden="true" d="" pointer-events="none" display="none"/></g></g></g><path class="foreground" aria-hidden="true" d="" pointer-events="none" display="none"/></g></g><g class="mark-text role-legend-title" pointer-events="none"><text text-anchor="end" transform="translate(95,12)" font-family="Agency FB" font-size="15px" font-weight="bold" fill="#000" opacity="1">Reservation/State</text></g></g><path class="foreground" aria-hidden="true" d="" pointer-events="none" display="none"/></g></g><g class="mark-group role-title"><g transform="translate(-32.93359375,-41)"><path class="background" aria-hidden="true" d="M0,0h0v0h0Z" pointer-events="none"/><g><g class="mark-text role-title-text" role="graphics-symbol" aria-roledescription="title" aria-label="Title text 'MT and reservations ranked by AIANa house ownership'" pointer-events="none"><text text-anchor="start" transform="translate(25,17)" font-family="Agency FB" font-size="22px" font-weight="bold" fill="#000" opacity="1">MT and reservations ranked by AIANa house ownership</text></g><g class="mark-text role-title-subtitle" role="graphics-symbol" aria-roledescription="subtitle" aria-label="Subtitle text 'Off-reservation AIANa people living in houses own the house less frequently than do AIANa people on reservations'" pointer-events="none"><text text-anchor="start" transform="translate(25,34)" font-family="Agency FB" font-size="12px" fill="#000" opacity="1">Off-reservation AIANa people living in houses own the house less frequently than do AIANa people on reservations</text></g></g><path class="foreground" aria-hidden="true" d="" pointer-events="none" display="none"/></g></g></g><path class="foreground" aria-hidden="true" d="" display="none"/></g></g></g></svg>